<svg id="Layer_1" data-name="Layer 1" xmlns="http://www.w3.org/2000/svg" viewBox="0 0 450 460.4"><defs><style>.cls-1,.cls-2,.cls-4{fill:#c9c9c9;}.cls-1,.cls-5{opacity:0.2;}.cls-3,.cls-7,.cls-8{fill:none;stroke:#c9c9c9;stroke-miterlimit:10;}.cls-3{stroke-width:2px;}.cls-4,.cls-6{opacity:0.5;}.cls-5{fill:#2fb86a;}.cls-8{stroke-dasharray:1.99 1.99;}</style></defs><rect class="cls-1" x="40" y="68" width="200" height="40"/><rect class="cls-1" x="250" y="68" width="200" height="40"/><rect class="cls-1" x="250" y="128" width="200" height="40"/><path class="cls-2" d="M122.24,100.37,120,107.19h-2.69l-1.43-11.8a1.29,1.29,0,0,1-.83-.38,1.27,1.27,0,0,1,.09-1.69,1.76,1.76,0,0,1,1.23-.34h3.2a1.86,1.86,0,0,1,1.24.33,1.11,1.11,0,0,1,.37.86,1.17,1.17,0,0,1-.37.88,1.86,1.86,0,0,1-1.24.33h-1.25l.79,6.72L121,96.52h2.5l1.87,5.59.8-6.72h-1.26a1.83,1.83,0,0,1-1.23-.33,1.13,1.13,0,0,1-.37-.88,1.1,1.1,0,0,1,.37-.87,1.83,1.83,0,0,1,1.23-.33h3.19a1.86,1.86,0,0,1,1.24.33,1.11,1.11,0,0,1,.37.86,1.13,1.13,0,0,1-.3.79,1.35,1.35,0,0,1-.84.42l-1.38,11.8h-2.65Z" transform="translate(-12 -12)"/><path class="cls-2" d="M139.28,107.19v-.56a7.84,7.84,0,0,1-2,.72,9.33,9.33,0,0,1-2,.24,4.64,4.64,0,0,1-3.14-1A2.94,2.94,0,0,1,131,104.3a3.67,3.67,0,0,1,1.54-2.81,6.45,6.45,0,0,1,4.26-1.29,15.27,15.27,0,0,1,2.52.23v-.57a1,1,0,0,0-.46-.88,3.19,3.19,0,0,0-1.77-.34,12,12,0,0,0-2.76.42,4.56,4.56,0,0,1-1,.15,1.07,1.07,0,0,1-.81-.34,1.26,1.26,0,0,1-.33-.89,1.12,1.12,0,0,1,.11-.53.93.93,0,0,1,.33-.35,3.9,3.9,0,0,1,.88-.33,17.79,17.79,0,0,1,1.82-.39,10.43,10.43,0,0,1,1.67-.15,5.58,5.58,0,0,1,3.48,1,3.19,3.19,0,0,1,1.23,2.64v5h.41a1.86,1.86,0,0,1,1.24.33,1.13,1.13,0,0,1,.37.88,1.11,1.11,0,0,1-.37.86,1.86,1.86,0,0,1-1.24.33Zm0-4.3a13.77,13.77,0,0,0-2.66-.28,4.42,4.42,0,0,0-2.52.71q-.66.47-.66.93a.64.64,0,0,0,.32.55,2.88,2.88,0,0,0,1.61.39,7,7,0,0,0,2-.34,7.33,7.33,0,0,0,1.95-.93Z" transform="translate(-12 -12)"/><path class="cls-2" d="M152,104.27,154.61,99a2.86,2.86,0,0,1-1.23-.16,1.16,1.16,0,0,1-.59-1,1.11,1.11,0,0,1,.37-.87,1.86,1.86,0,0,1,1.24-.33h3.29a1.86,1.86,0,0,1,1.24.33,1.16,1.16,0,0,1,.36.88,1.12,1.12,0,0,1-.36.86,1.86,1.86,0,0,1-1.24.33h-.4l-4,8.24h-2.51l-4-8.24h-.34a1.83,1.83,0,0,1-1.23-.33,1.1,1.1,0,0,1-.37-.87,1.11,1.11,0,0,1,.37-.87,1.83,1.83,0,0,1,1.23-.33h3.23a1.8,1.8,0,0,1,1.22.33,1.13,1.13,0,0,1,.37.88,1.15,1.15,0,0,1-.56,1,3,3,0,0,1-1.26.17Z" transform="translate(-12 -12)"/><path class="cls-2" d="M165.88,95.39v9.4h5.18v-2.27a1.86,1.86,0,0,1,.33-1.24,1.13,1.13,0,0,1,.88-.37,1.09,1.09,0,0,1,.86.37,1.86,1.86,0,0,1,.33,1.24v4.67H162.08a1.83,1.83,0,0,1-1.23-.33,1.13,1.13,0,0,1-.37-.88,1.11,1.11,0,0,1,.37-.86,1.83,1.83,0,0,1,1.23-.33h1.4v-9.4h-1.4a1.83,1.83,0,0,1-1.23-.33,1.13,1.13,0,0,1-.37-.88,1.1,1.1,0,0,1,.37-.87,1.83,1.83,0,0,1,1.23-.33h5.21a1.81,1.81,0,0,1,1.23.33,1.08,1.08,0,0,1,.37.86,1.13,1.13,0,0,1-.37.88,1.81,1.81,0,0,1-1.23.33Z" transform="translate(-12 -12)"/><path class="cls-2" d="M178,97.63v7.16h.87a1.83,1.83,0,0,1,1.23.33,1.13,1.13,0,0,1,.37.88,1.11,1.11,0,0,1-.37.86,1.83,1.83,0,0,1-1.23.33h-3.16a1.83,1.83,0,0,1-1.23-.33,1.22,1.22,0,0,1,0-1.74,1.64,1.64,0,0,1,1.13-.33v-9.4a1.49,1.49,0,0,1-1-.39,1.12,1.12,0,0,1-.32-.82,1.1,1.1,0,0,1,.37-.87,1.83,1.83,0,0,1,1.23-.33h2.64l3.27,7.23L185.05,93h2.66a1.86,1.86,0,0,1,1.24.33,1.11,1.11,0,0,1,.37.86A1.09,1.09,0,0,1,189,95a1.51,1.51,0,0,1-1,.39v9.4a1.61,1.61,0,0,1,1.13.34,1.14,1.14,0,0,1,.36.87,1.11,1.11,0,0,1-.37.86,1.86,1.86,0,0,1-1.24.33h-3.16a1.85,1.85,0,0,1-1.23-.33,1.16,1.16,0,0,1-.36-.88,1.13,1.13,0,0,1,.36-.86,1.85,1.85,0,0,1,1.23-.33h.88V97.63l-2.76,6.19H180.8Z" transform="translate(-12 -12)"/><path class="cls-2" d="M332.24,100.37,330,107.19h-2.69l-1.43-11.8a1.29,1.29,0,0,1-.83-.38,1.27,1.27,0,0,1,.09-1.69,1.76,1.76,0,0,1,1.23-.34h3.2a1.86,1.86,0,0,1,1.24.33,1.11,1.11,0,0,1,.37.86,1.17,1.17,0,0,1-.37.88,1.86,1.86,0,0,1-1.24.33h-1.25l.79,6.72L331,96.52h2.5l1.87,5.59.8-6.72h-1.26a1.83,1.83,0,0,1-1.23-.33,1.13,1.13,0,0,1-.37-.88,1.1,1.1,0,0,1,.37-.87,1.83,1.83,0,0,1,1.23-.33h3.19a1.86,1.86,0,0,1,1.24.33,1.11,1.11,0,0,1,.37.86,1.13,1.13,0,0,1-.3.79,1.35,1.35,0,0,1-.84.42l-1.38,11.8h-2.65Z" transform="translate(-12 -12)"/><path class="cls-2" d="M349.28,107.19v-.56a7.84,7.84,0,0,1-2,.72,9.33,9.33,0,0,1-2,.24,4.64,4.64,0,0,1-3.14-1A2.94,2.94,0,0,1,341,104.3a3.67,3.67,0,0,1,1.54-2.81,6.45,6.45,0,0,1,4.26-1.29,15.27,15.27,0,0,1,2.52.23v-.57a1,1,0,0,0-.46-.88,3.19,3.19,0,0,0-1.77-.34,12,12,0,0,0-2.76.42,4.56,4.56,0,0,1-1,.15,1.07,1.07,0,0,1-.81-.34,1.26,1.26,0,0,1-.33-.89,1.12,1.12,0,0,1,.11-.53.93.93,0,0,1,.33-.35,3.9,3.9,0,0,1,.88-.33,17.79,17.79,0,0,1,1.82-.39,10.43,10.43,0,0,1,1.67-.15,5.58,5.58,0,0,1,3.48,1,3.19,3.19,0,0,1,1.23,2.64v5h.41a1.86,1.86,0,0,1,1.24.33,1.13,1.13,0,0,1,.37.88,1.11,1.11,0,0,1-.37.86,1.86,1.86,0,0,1-1.24.33Zm0-4.3a13.77,13.77,0,0,0-2.66-.28,4.42,4.42,0,0,0-2.52.71q-.66.47-.66.93a.64.64,0,0,0,.32.55,2.88,2.88,0,0,0,1.61.39,7,7,0,0,0,2-.34,7.33,7.33,0,0,0,1.95-.93Z" transform="translate(-12 -12)"/><path class="cls-2" d="M362,104.27,364.61,99a2.86,2.86,0,0,1-1.23-.16,1.16,1.16,0,0,1-.59-1,1.11,1.11,0,0,1,.37-.87,1.86,1.86,0,0,1,1.24-.33h3.29a1.86,1.86,0,0,1,1.24.33,1.16,1.16,0,0,1,.36.88,1.12,1.12,0,0,1-.36.86,1.86,1.86,0,0,1-1.24.33h-.4l-4,8.24h-2.51l-4-8.24h-.34a1.83,1.83,0,0,1-1.23-.33,1.1,1.1,0,0,1-.37-.87,1.11,1.11,0,0,1,.37-.87,1.83,1.83,0,0,1,1.23-.33h3.23a1.8,1.8,0,0,1,1.22.33,1.13,1.13,0,0,1,.37.88,1.15,1.15,0,0,1-.56,1,3,3,0,0,1-1.26.17Z" transform="translate(-12 -12)"/><path class="cls-2" d="M375.88,95.39v9.4h5.18v-2.27a1.86,1.86,0,0,1,.33-1.24,1.13,1.13,0,0,1,.88-.37,1.09,1.09,0,0,1,.86.37,1.86,1.86,0,0,1,.33,1.24v4.67H372.08a1.83,1.83,0,0,1-1.23-.33,1.13,1.13,0,0,1-.37-.88,1.11,1.11,0,0,1,.37-.86,1.83,1.83,0,0,1,1.23-.33h1.4v-9.4h-1.4a1.83,1.83,0,0,1-1.23-.33,1.13,1.13,0,0,1-.37-.88,1.1,1.1,0,0,1,.37-.87,1.83,1.83,0,0,1,1.23-.33h5.21a1.81,1.81,0,0,1,1.23.33,1.08,1.08,0,0,1,.37.86,1.13,1.13,0,0,1-.37.88,1.81,1.81,0,0,1-1.23.33Z" transform="translate(-12 -12)"/><path class="cls-2" d="M388,97.63v7.16h.87a1.83,1.83,0,0,1,1.23.33,1.13,1.13,0,0,1,.37.88,1.11,1.11,0,0,1-.37.86,1.83,1.83,0,0,1-1.23.33h-3.16a1.83,1.83,0,0,1-1.23-.33,1.22,1.22,0,0,1,0-1.74,1.64,1.64,0,0,1,1.13-.33v-9.4a1.49,1.49,0,0,1-1-.39,1.12,1.12,0,0,1-.32-.82,1.1,1.1,0,0,1,.37-.87,1.83,1.83,0,0,1,1.23-.33h2.64l3.27,7.23L395.05,93h2.66a1.86,1.86,0,0,1,1.24.33,1.11,1.11,0,0,1,.37.86A1.09,1.09,0,0,1,399,95a1.51,1.51,0,0,1-.95.39v9.4a1.61,1.61,0,0,1,1.13.34,1.14,1.14,0,0,1,.36.87,1.11,1.11,0,0,1-.37.86,1.86,1.86,0,0,1-1.24.33h-3.16a1.85,1.85,0,0,1-1.23-.33,1.16,1.16,0,0,1-.36-.88,1.13,1.13,0,0,1,.36-.86,1.85,1.85,0,0,1,1.23-.33h.88V97.63l-2.76,6.19H390.8Z" transform="translate(-12 -12)"/><line class="cls-3" x1="60" y1="108" x2="60" y2="140.94"/><polygon class="cls-2" points="60 148 55.94 138.06 60 140.42 64.06 138.06 60 148"/><line class="cls-3" x1="100" y1="108" x2="100" y2="140.94"/><polygon class="cls-2" points="100 148 95.94 138.06 100 140.42 104.06 138.06 100 148"/><line class="cls-3" x1="140" y1="108" x2="140" y2="140.94"/><polygon class="cls-2" points="140 148 135.94 138.06 140 140.42 144.06 138.06 140 148"/><line class="cls-3" x1="140" y1="48" x2="140" y2="60.94"/><polygon class="cls-2" points="140 68 135.94 58.06 140 60.42 144.06 58.06 140 68"/><line class="cls-3" x1="350" y1="48" x2="350" y2="60.94"/><polygon class="cls-2" points="350 68 345.94 58.06 350 60.42 354.06 58.06 350 68"/><line class="cls-3" x1="180" y1="108" x2="180" y2="140.94"/><polygon class="cls-2" points="180 148 175.94 138.06 180 140.42 184.06 138.06 180 148"/><line class="cls-3" x1="220" y1="108" x2="220" y2="140.94"/><polygon class="cls-2" points="220 148 215.94 138.06 220 140.42 224.06 138.06 220 148"/><line class="cls-3" x1="310" y1="168" x2="310" y2="180.94"/><polygon class="cls-2" points="310 188 305.94 178.06 310 180.42 314.06 178.06 310 188"/><line class="cls-3" x1="350" y1="168" x2="350" y2="180.94"/><polygon class="cls-2" points="350 188 345.94 178.06 350 180.42 354.06 178.06 350 188"/><line class="cls-3" x1="390" y1="168" x2="390" y2="180.94"/><polygon class="cls-2" points="390 188 385.94 178.06 390 180.42 394.06 178.06 390 188"/><line class="cls-3" x1="270" y1="108" x2="270" y2="120.94"/><polygon class="cls-2" points="270 128 265.94 118.06 270 120.42 274.06 118.06 270 128"/><line class="cls-3" x1="310" y1="108" x2="310" y2="120.94"/><polygon class="cls-2" points="310 128 305.94 118.06 310 120.42 314.06 118.06 310 128"/><line class="cls-3" x1="350" y1="108" x2="350" y2="120.94"/><polygon class="cls-2" points="350 128 345.94 118.06 350 120.42 354.06 118.06 350 128"/><line class="cls-3" x1="390" y1="108" x2="390" y2="120.94"/><polygon class="cls-2" points="390 128 385.94 118.06 390 120.42 394.06 118.06 390 128"/><line class="cls-3" x1="430" y1="108" x2="430" y2="120.94"/><polygon class="cls-2" points="430 128 425.94 118.06 430 120.42 434.06 118.06 430 128"/><line class="cls-3" x1="60" y1="198" x2="60" y2="230.94"/><polygon class="cls-2" points="60 238 55.94 228.06 60 230.42 64.06 228.06 60 238"/><line class="cls-3" x1="100" y1="198" x2="100" y2="230.94"/><polygon class="cls-2" points="100 238 95.94 228.06 100 230.42 104.06 228.06 100 238"/><line class="cls-3" x1="140" y1="198" x2="140" y2="230.94"/><polygon class="cls-2" points="140 238 135.94 228.06 140 230.42 144.06 228.06 140 238"/><line class="cls-3" x1="180" y1="198" x2="180" y2="230.94"/><polygon class="cls-2" points="180 238 175.94 228.06 180 230.42 184.06 228.06 180 238"/><line class="cls-3" x1="220" y1="198" x2="220" y2="230.94"/><polygon class="cls-2" points="220 238 215.94 228.06 220 230.42 224.06 228.06 220 238"/><path class="cls-4" d="M231,110v-4.15l-3.25,3.2-1.4-1.4L231,103v-2h-2l-4.65,4.65-1.4-1.4,3.2-3.25H222V99h4.15L223,95.75l1.4-1.4L229,99h2V97l-4.65-4.65,1.4-1.4,3.25,3.2V90h2v4.15l3.25-3.2,1.4,1.4L233,97v2h2l4.65-4.65,1.4,1.4L237.85,99H242v2h-4.15l3.2,3.25-1.4,1.4L235,101h-2v2l4.65,4.65-1.4,1.4-3.25-3.2V110Z" transform="translate(-12 -12)"/><path class="cls-4" d="M441,110v-4.15l-3.25,3.2-1.4-1.4L441,103v-2h-2l-4.65,4.65-1.4-1.4,3.2-3.25H432V99h4.15L433,95.75l1.4-1.4L439,99h2V97l-4.65-4.65,1.4-1.4,3.25,3.2V90h2v4.15l3.25-3.2,1.4,1.4L443,97v2h2l4.65-4.65,1.4,1.4L447.85,99H452v2h-4.15l3.2,3.25-1.4,1.4L445,101h-2v2l4.65,4.65-1.4,1.4-3.25-3.2V110Z" transform="translate(-12 -12)"/><path class="cls-4" d="M70,110v-4.15l-3.25,3.2-1.4-1.4L70,103v-2H68l-4.65,4.65-1.4-1.4,3.2-3.25H61V99h4.15L62,95.75l1.4-1.4L68,99h2V97l-4.65-4.65,1.4-1.4L70,94.15V90h2v4.15L75.25,91l1.4,1.4L72,97v2h2l4.65-4.65,1.4,1.4L76.85,99H81v2H76.85l3.2,3.25-1.4,1.4L74,101H72v2l4.65,4.65-1.4,1.4L72,105.85V110Z" transform="translate(-12 -12)"/><path class="cls-4" d="M281,110v-4.15l-3.25,3.2-1.4-1.4L281,103v-2h-2l-4.65,4.65-1.4-1.4,3.2-3.25H272V99h4.15L273,95.75l1.4-1.4L279,99h2V97l-4.65-4.65,1.4-1.4,3.25,3.2V90h2v4.15l3.25-3.2,1.4,1.4L283,97v2h2l4.65-4.65,1.4,1.4L287.85,99H292v2h-4.15l3.2,3.25-1.4,1.4L285,101h-2v2l4.65,4.65-1.4,1.4-3.25-3.2V110Z" transform="translate(-12 -12)"/><rect class="cls-3" x="55" y="158" width="10" height="10"/><rect class="cls-3" x="55" y="168" width="10" height="10"/><rect class="cls-3" x="55" y="178" width="10" height="10"/><rect class="cls-3" x="95" y="158" width="10" height="10"/><rect class="cls-3" x="95" y="168" width="10" height="10"/><rect class="cls-3" x="95" y="178" width="10" height="10"/><rect class="cls-3" x="135" y="158" width="10" height="10"/><rect class="cls-3" x="135" y="168" width="10" height="10"/><rect class="cls-3" x="135" y="178" width="10" height="10"/><rect class="cls-3" x="175" y="158" width="10" height="10"/><rect class="cls-3" x="175" y="168" width="10" height="10"/><rect class="cls-3" x="175" y="178" width="10" height="10"/><rect class="cls-3" x="215" y="158" width="10" height="10"/><rect class="cls-3" x="215" y="168" width="10" height="10"/><rect class="cls-3" x="215" y="178" width="10" height="10"/><rect class="cls-5" y="298" width="410" height="40"/><rect class="cls-5" x="40" y="238" width="190" height="40"/><rect class="cls-5" x="290" y="238" width="120" height="40"/><rect class="cls-5" x="250" y="358" width="160" height="40"/><path class="cls-2" d="M291.69,465.32a.86.86,0,0,1,.59-.27.72.72,0,0,1,.57.25,1.17,1.17,0,0,1,.22.81v1a1.18,1.18,0,0,1-.22.82.78.78,0,0,1-.58.25.88.88,0,0,1-.56-.19,1.16,1.16,0,0,1-.26-.58.94.94,0,0,0-.45-.64,3.13,3.13,0,0,0-1.62-.38,2.49,2.49,0,0,0-1.81.67,2.22,2.22,0,0,0-.69,1.68,1.82,1.82,0,0,0,.66,1.48,3.45,3.45,0,0,0,2.18.54,5.6,5.6,0,0,0,1.63-.2,2,2,0,0,0,.71-.43,1,1,0,0,1,.61-.3.78.78,0,0,1,.57.24.81.81,0,0,1,.24.57,1.29,1.29,0,0,1-.73,1,5.71,5.71,0,0,1-3.16.71,4.74,4.74,0,0,1-2.9-.77,3.34,3.34,0,0,1-1.41-2.84,3.83,3.83,0,0,1,1.14-2.84,4.09,4.09,0,0,1,3-1.12,6,6,0,0,1,1.23.13A4.58,4.58,0,0,1,291.69,465.32Z" transform="translate(-12 -12)"/><path class="cls-2" d="M299.59,462v8.53h1.93a1.2,1.2,0,0,1,.82.22.8.8,0,0,1,0,1.16,1.26,1.26,0,0,1-.82.22h-5.45a1.24,1.24,0,0,1-.82-.22.75.75,0,0,1-.25-.59.72.72,0,0,1,.25-.57,1.18,1.18,0,0,1,.82-.22H298V463.6H296.7a1.22,1.22,0,0,1-.82-.23.75.75,0,0,1-.25-.58.72.72,0,0,1,.25-.57,1.2,1.2,0,0,1,.82-.22Z" transform="translate(-12 -12)"/><path class="cls-2" d="M312.41,469.39h-6.57a2.07,2.07,0,0,0,.89,1,3.3,3.3,0,0,0,1.72.38,9.64,9.64,0,0,0,2.37-.38,4.35,4.35,0,0,1,.84-.15.7.7,0,0,1,.54.22.77.77,0,0,1,.22.57.7.7,0,0,1-.23.53,3.61,3.61,0,0,1-1.53.55,10.61,10.61,0,0,1-2.32.27,4.32,4.32,0,0,1-3.08-1.09,3.5,3.5,0,0,1-1.15-2.67,3.42,3.42,0,0,1,1.25-2.75,4.32,4.32,0,0,1,2.87-1.06,4.54,4.54,0,0,1,1.79.35,3.71,3.71,0,0,1,1.21.74,4.43,4.43,0,0,1,.93,1.43,3.42,3.42,0,0,1,.25,1.37Zm-1.77-1.6a2.46,2.46,0,0,0-1-1,2.88,2.88,0,0,0-1.41-.34,2.83,2.83,0,0,0-1.41.34,2.55,2.55,0,0,0-1,1Z" transform="translate(-12 -12)"/><path class="cls-2" d="M319.44,472.13v-.38a4.78,4.78,0,0,1-1.33.48,6.06,6.06,0,0,1-1.32.16,3.08,3.08,0,0,1-2.09-.68,2,2,0,0,1-.81-1.51,2.43,2.43,0,0,1,1-1.87,4.25,4.25,0,0,1,2.84-.87,11.2,11.2,0,0,1,1.68.16v-.38a.72.72,0,0,0-.31-.59,2.16,2.16,0,0,0-1.18-.23,7.93,7.93,0,0,0-1.84.29,3.53,3.53,0,0,1-.66.1.74.74,0,0,1-.54-.23.82.82,0,0,1-.22-.59.63.63,0,0,1,.08-.35.61.61,0,0,1,.21-.24,3,3,0,0,1,.59-.22c.4-.11.8-.19,1.21-.26a8,8,0,0,1,1.12-.1,3.65,3.65,0,0,1,2.31.65,2.11,2.11,0,0,1,.83,1.76v3.3h.27a1.23,1.23,0,0,1,.83.22.82.82,0,0,1,0,1.16,1.29,1.29,0,0,1-.83.22Zm0-2.87a9.73,9.73,0,0,0-1.78-.19,2.91,2.91,0,0,0-1.68.48.81.81,0,0,0-.43.62.41.41,0,0,0,.21.36,1.86,1.86,0,0,0,1.07.26,4.53,4.53,0,0,0,1.31-.22,5.21,5.21,0,0,0,1.3-.62Z" transform="translate(-12 -12)"/><path class="cls-2" d="M326,465v.54a3.1,3.1,0,0,1,1-.56,3.51,3.51,0,0,1,1.15-.19,3,3,0,0,1,2.25.89,2.6,2.6,0,0,1,.65,1.84v3a1.07,1.07,0,0,1,.75.22.82.82,0,0,1,0,1.16,1.29,1.29,0,0,1-.83.22h-1.44a1.29,1.29,0,0,1-.83-.22.78.78,0,0,1-.24-.59.75.75,0,0,1,.24-.57,1.07,1.07,0,0,1,.75-.22v-3a.93.93,0,0,0-.28-.76,1.66,1.66,0,0,0-1.1-.32,2.1,2.1,0,0,0-1,.22,4.2,4.2,0,0,0-1.06.91v3a1.83,1.83,0,0,1,.79.11.8.8,0,0,1,.14,1.27,1.26,1.26,0,0,1-.82.22h-1.82a1.29,1.29,0,0,1-.83-.22.78.78,0,0,1-.24-.59.76.76,0,0,1,.37-.68,1.94,1.94,0,0,1,.81-.11v-3.89a1.11,1.11,0,0,1-.76-.23.75.75,0,0,1-.24-.58.72.72,0,0,1,.25-.57,1.2,1.2,0,0,1,.82-.23Z" transform="translate(-12 -12)"/><path class="cls-2" d="M346.41,466.64v3.21a.85.85,0,0,0,.21.68,2,2,0,0,0,1.17.25,4.91,4.91,0,0,0,2.26-.52,1.47,1.47,0,0,1,.63-.2.74.74,0,0,1,.54.23.77.77,0,0,1,.23.57.69.69,0,0,1-.25.54,3.68,3.68,0,0,1-1.51.68,7.73,7.73,0,0,1-1.9.31,3.35,3.35,0,0,1-2.24-.65,2,2,0,0,1-.75-1.58v-3.52h-.57a1.23,1.23,0,0,1-.83-.23.81.81,0,0,1,0-1.15,1.23,1.23,0,0,1,.83-.23h.57v-1.44a1.23,1.23,0,0,1,.23-.83.75.75,0,0,1,.58-.24.73.73,0,0,1,.57.24,1.23,1.23,0,0,1,.23.83V465h3a1.2,1.2,0,0,1,.82.23.79.79,0,0,1,0,1.15,1.2,1.2,0,0,1-.82.23Z" transform="translate(-12 -12)"/><path class="cls-2" d="M360.56,468.71a3.48,3.48,0,0,1-.51,1.79,3.63,3.63,0,0,1-1.52,1.37,4.67,4.67,0,0,1-2.12.52,4.54,4.54,0,0,1-2.09-.51,3.56,3.56,0,0,1-1.52-1.37,3.45,3.45,0,0,1-.53-1.81,3.85,3.85,0,0,1,2.06-3.35,4.43,4.43,0,0,1,2.08-.53,4.34,4.34,0,0,1,2.11.55,3.72,3.72,0,0,1,1.53,1.46A3.83,3.83,0,0,1,360.56,468.71Zm-1.6,0a2.14,2.14,0,0,0-.55-1.42,2.7,2.7,0,0,0-3.81-.18,2.17,2.17,0,0,0-.72,1.61,1.86,1.86,0,0,0,.73,1.4,2.59,2.59,0,0,0,1.8.65,2.62,2.62,0,0,0,1.82-.65A1.86,1.86,0,0,0,359,468.72Z" transform="translate(-12 -12)"/><path class="cls-2" d="M364.69,469.46v2.67h-1.88a1.26,1.26,0,0,1-.82-.22.8.8,0,0,1,0-1.16,1.22,1.22,0,0,1,.82-.22h.28V463.6h-.28a1.2,1.2,0,0,1-.82-.23.79.79,0,0,1,0-1.15,1.2,1.2,0,0,1,.82-.22h1.88v5.39l1.25-1a1.23,1.23,0,0,1-.2-.55.75.75,0,0,1,.24-.58,1.22,1.22,0,0,1,.82-.23h1.83a1.23,1.23,0,0,1,.83.23.81.81,0,0,1,0,1.15,1.23,1.23,0,0,1-.83.23h-.44l-1.95,1.57,2.62,2.32h.47a1.2,1.2,0,0,1,.82.22.8.8,0,0,1,0,1.16,1.26,1.26,0,0,1-.82.22h-1.85a1.26,1.26,0,0,1-.82-.22.78.78,0,0,1-.25-.59.9.9,0,0,1,.27-.6l-1.7-1.5Z" transform="translate(-12 -12)"/><path class="cls-2" d="M379.62,469.39h-6.57a2.07,2.07,0,0,0,.89,1,3.3,3.3,0,0,0,1.72.38,9.64,9.64,0,0,0,2.37-.38,4.29,4.29,0,0,1,.85-.15.69.69,0,0,1,.53.22.77.77,0,0,1,.22.57.7.7,0,0,1-.23.53,3.61,3.61,0,0,1-1.52.55,10.76,10.76,0,0,1-2.33.27,4.34,4.34,0,0,1-3.08-1.09,3.5,3.5,0,0,1-1.15-2.67,3.45,3.45,0,0,1,1.25-2.75,4.32,4.32,0,0,1,2.87-1.06,4.54,4.54,0,0,1,1.79.35,3.88,3.88,0,0,1,1.22.74,4.78,4.78,0,0,1,.93,1.43,3.61,3.61,0,0,1,.24,1.37Zm-1.77-1.6a2.46,2.46,0,0,0-1-1,3.09,3.09,0,0,0-2.82,0,2.55,2.55,0,0,0-1,1Z" transform="translate(-12 -12)"/><path class="cls-2" d="M383.59,465v.54a3.1,3.1,0,0,1,1-.56,3.51,3.51,0,0,1,1.15-.19,3,3,0,0,1,2.25.89,2.6,2.6,0,0,1,.65,1.84v3a1.07,1.07,0,0,1,.75.22.82.82,0,0,1,0,1.16,1.29,1.29,0,0,1-.83.22h-1.44a1.29,1.29,0,0,1-.83-.22.78.78,0,0,1-.24-.59.75.75,0,0,1,.24-.57,1.07,1.07,0,0,1,.75-.22v-3a.93.93,0,0,0-.28-.76,1.66,1.66,0,0,0-1.1-.32,2.18,2.18,0,0,0-1,.22,4.37,4.37,0,0,0-1.05.91v3a1.83,1.83,0,0,1,.79.11.8.8,0,0,1,.14,1.27,1.26,1.26,0,0,1-.82.22h-1.82a1.27,1.27,0,0,1-.83-.22.78.78,0,0,1-.25-.59.77.77,0,0,1,.38-.68,1.89,1.89,0,0,1,.8-.11v-3.89a1.1,1.1,0,0,1-.75-.23.75.75,0,0,1-.24-.58.72.72,0,0,1,.25-.57,1.2,1.2,0,0,1,.82-.23Z" transform="translate(-12 -12)"/><path class="cls-2" d="M396.54,466.91a3.3,3.3,0,0,0-.82-.36,3,3,0,0,0-.9-.13,3.1,3.1,0,0,0-1.48.31c-.16.09-.24.18-.24.29s.11.24.33.35a4.76,4.76,0,0,0,1.12.24,13.15,13.15,0,0,1,2.22.44,2.7,2.7,0,0,1,1.26.86,1.91,1.91,0,0,1,.45,1.2,1.76,1.76,0,0,1-.76,1.44,4.48,4.48,0,0,1-2.82.84,5.81,5.81,0,0,1-1.29-.13,4.56,4.56,0,0,1-1.08-.35,1,1,0,0,1-.25.16.86.86,0,0,1-.27.05.76.76,0,0,1-.6-.25,1.18,1.18,0,0,1-.22-.82v-.54a1.18,1.18,0,0,1,.22-.82.73.73,0,0,1,.58-.25.74.74,0,0,1,.49.16,1.06,1.06,0,0,1,.3.55,2.4,2.4,0,0,0,.88.47,3.94,3.94,0,0,0,1.19.16,3.47,3.47,0,0,0,1.71-.34c.19-.11.29-.23.29-.36s-.14-.38-.41-.51a6.19,6.19,0,0,0-1.71-.35,4.76,4.76,0,0,1-2.58-.78,1.81,1.81,0,0,1-.65-1.41,1.74,1.74,0,0,1,.73-1.43,4,4,0,0,1,2.57-.78,5.32,5.32,0,0,1,1.07.11,4.68,4.68,0,0,1,1,.32,1.17,1.17,0,0,1,.28-.16.53.53,0,0,1,.24-.06.69.69,0,0,1,.54.25,1.2,1.2,0,0,1,.22.82v.4a1.48,1.48,0,0,1-.12.71.82.82,0,0,1-1.19.18A.79.79,0,0,1,396.54,466.91Z" transform="translate(-12 -12)"/><path class="cls-2" d="M97.57,15v.54a3,3,0,0,1,1-.56,3.49,3.49,0,0,1,1.14-.19,2.93,2.93,0,0,1,2.25.89,2.56,2.56,0,0,1,.66,1.84v3a1.1,1.1,0,0,1,.75.22.75.75,0,0,1,.24.58.73.73,0,0,1-.25.58,1.26,1.26,0,0,1-.82.22h-1.45a1.26,1.26,0,0,1-.82-.22.81.81,0,0,1,0-1.16,1.1,1.1,0,0,1,.75-.22v-3a.93.93,0,0,0-.28-.76,1.64,1.64,0,0,0-1.1-.32,2.13,2.13,0,0,0-1,.22,4.38,4.38,0,0,0-1.06.91v3a1.89,1.89,0,0,1,.8.11.78.78,0,0,1,.38.69.73.73,0,0,1-.25.58,1.24,1.24,0,0,1-.82.22H95.86a1.24,1.24,0,0,1-.82-.22.75.75,0,0,1-.25-.59.76.76,0,0,1,.37-.68,2,2,0,0,1,.81-.11V16.64a1.07,1.07,0,0,1-.75-.23.81.81,0,0,1,0-1.15,1.23,1.23,0,0,1,.83-.23Z" transform="translate(-12 -12)"/><path class="cls-2" d="M113,18.71a3.48,3.48,0,0,1-.51,1.79,3.63,3.63,0,0,1-1.52,1.37,4.67,4.67,0,0,1-2.12.52,4.57,4.57,0,0,1-2.09-.51,3.56,3.56,0,0,1-1.52-1.37,3.45,3.45,0,0,1-.53-1.81,3.91,3.91,0,0,1,2.06-3.35,4.43,4.43,0,0,1,2.08-.53,4.32,4.32,0,0,1,2.11.55,3.72,3.72,0,0,1,1.53,1.46A3.83,3.83,0,0,1,113,18.71Zm-1.6,0a2.14,2.14,0,0,0-.55-1.42,2.7,2.7,0,0,0-3.81-.18,2.17,2.17,0,0,0-.72,1.61,1.86,1.86,0,0,0,.73,1.4,2.59,2.59,0,0,0,1.8.65,2.62,2.62,0,0,0,1.82-.65A1.86,1.86,0,0,0,111.35,18.72Z" transform="translate(-12 -12)"/><path class="cls-2" d="M119.19,15v5.5h1.92a1.18,1.18,0,0,1,.82.22.8.8,0,0,1,0,1.16,1.24,1.24,0,0,1-.82.22h-5.45a1.26,1.26,0,0,1-.82-.22.78.78,0,0,1-.25-.59.76.76,0,0,1,.25-.57,1.2,1.2,0,0,1,.82-.22h1.93V16.64H116.3a1.2,1.2,0,0,1-.82-.23.73.73,0,0,1-.25-.58.75.75,0,0,1,.24-.57,1.23,1.23,0,0,1,.83-.23ZM119,12v1.69h-1.91V12Z" transform="translate(-12 -12)"/><path class="cls-2" d="M129.73,16.91a3.3,3.3,0,0,0-.82-.36,3,3,0,0,0-.9-.13,3.1,3.1,0,0,0-1.48.31c-.16.09-.24.18-.24.29s.11.24.33.35a4.63,4.63,0,0,0,1.11.24,12.72,12.72,0,0,1,2.22.44,2.69,2.69,0,0,1,1.27.86,1.9,1.9,0,0,1,.44,1.2,1.75,1.75,0,0,1-.75,1.44,4.5,4.5,0,0,1-2.82.84,5.75,5.75,0,0,1-1.29-.13,4.56,4.56,0,0,1-1.08-.35,1,1,0,0,1-.25.16.86.86,0,0,1-.27.05.76.76,0,0,1-.6-.25,1.18,1.18,0,0,1-.22-.82v-.54a1.18,1.18,0,0,1,.22-.82.73.73,0,0,1,.58-.25.71.71,0,0,1,.48.16,1.06,1.06,0,0,1,.31.55,2.33,2.33,0,0,0,.88.47,3.94,3.94,0,0,0,1.19.16,3.53,3.53,0,0,0,1.71-.34c.19-.11.29-.23.29-.36s-.14-.38-.42-.51a6,6,0,0,0-1.71-.35,4.75,4.75,0,0,1-2.57-.78,1.78,1.78,0,0,1-.65-1.41,1.76,1.76,0,0,1,.72-1.43,4,4,0,0,1,2.58-.78,5.32,5.32,0,0,1,1.07.11,4.68,4.68,0,0,1,1,.32,1.17,1.17,0,0,1,.28-.16.53.53,0,0,1,.23-.06.71.71,0,0,1,.55.25,1.2,1.2,0,0,1,.22.82v.4a1.48,1.48,0,0,1-.12.71.8.8,0,0,1-.68.36.76.76,0,0,1-.51-.18A.79.79,0,0,1,129.73,16.91Z" transform="translate(-12 -12)"/><path class="cls-2" d="M136.7,22.07l-2.77-5.43a.93.93,0,0,1-.59-.27.74.74,0,0,1-.21-.53.73.73,0,0,1,.25-.58,1.2,1.2,0,0,1,.82-.23h1.46a1.23,1.23,0,0,1,.83.23.81.81,0,0,1,0,1.15,1.14,1.14,0,0,1-.78.23l1.89,3.68,1.88-3.68a1.12,1.12,0,0,1-.77-.23.81.81,0,0,1,0-1.15,1.23,1.23,0,0,1,.83-.23h1.51a1.17,1.17,0,0,1,.81.23.73.73,0,0,1,.25.58.76.76,0,0,1-.21.54.92.92,0,0,1-.63.26l-3.67,7.23a1.67,1.67,0,0,1,.79.12.77.77,0,0,1,.38.68.76.76,0,0,1-.25.58,1.2,1.2,0,0,1-.82.22h-3.5a1.2,1.2,0,0,1-.82-.22.73.73,0,0,1-.25-.58.74.74,0,0,1,.25-.58,1.2,1.2,0,0,1,.82-.22h1.6Z" transform="translate(-12 -12)"/><path class="cls-2" d="M158.53,16.91a3.15,3.15,0,0,0-.82-.36,3.45,3.45,0,0,0-2.37.18c-.17.09-.25.18-.25.29s.11.24.33.35a4.76,4.76,0,0,0,1.12.24,13.15,13.15,0,0,1,2.22.44,2.65,2.65,0,0,1,1.26.86,1.91,1.91,0,0,1,.45,1.2,1.74,1.74,0,0,1-.76,1.44,4.46,4.46,0,0,1-2.82.84,5.72,5.72,0,0,1-1.28-.13,4.49,4.49,0,0,1-1.09-.35.82.82,0,0,1-.25.16.86.86,0,0,1-.27.05.76.76,0,0,1-.6-.25,1.18,1.18,0,0,1-.22-.82v-.54a1.18,1.18,0,0,1,.22-.82.74.74,0,0,1,.58-.25.72.72,0,0,1,.49.16,1.06,1.06,0,0,1,.3.55,2.37,2.37,0,0,0,.89.47,3.87,3.87,0,0,0,1.18.16,3.47,3.47,0,0,0,1.71-.34c.2-.11.29-.23.29-.36s-.13-.38-.41-.51a6.19,6.19,0,0,0-1.71-.35,4.76,4.76,0,0,1-2.58-.78,1.81,1.81,0,0,1-.65-1.41,1.74,1.74,0,0,1,.73-1.43,4,4,0,0,1,2.58-.78,5.22,5.22,0,0,1,1.06.11,4.68,4.68,0,0,1,1,.32,1.39,1.39,0,0,1,.28-.16.6.6,0,0,1,.24-.06.73.73,0,0,1,.55.25,1.26,1.26,0,0,1,.21.82v.4a1.48,1.48,0,0,1-.12.71.79.79,0,0,1-.68.36.79.79,0,0,1-.51-.18A.84.84,0,0,1,158.53,16.91Z" transform="translate(-12 -12)"/><path class="cls-2" d="M164.41,21.25v2.62h1a1.2,1.2,0,0,1,.82.22.78.78,0,0,1,.25.58.76.76,0,0,1-.25.58,1.2,1.2,0,0,1-.82.22h-2.84a1.23,1.23,0,0,1-.83-.22.75.75,0,0,1-.24-.58.74.74,0,0,1,.25-.58,1.22,1.22,0,0,1,.82-.22h.27V16.64h-.27a1.23,1.23,0,0,1-.83-.23.81.81,0,0,1,0-1.15,1.23,1.23,0,0,1,.83-.23h1.87v.55a4.86,4.86,0,0,1,1.17-.57,4.27,4.27,0,0,1,1.23-.19,3.86,3.86,0,0,1,2.8,1.12,3.45,3.45,0,0,1,1.16,2.55,3.14,3.14,0,0,1-1.37,2.61,4.13,4.13,0,0,1-2.57.86,4.24,4.24,0,0,1-1.22-.18A5.72,5.72,0,0,1,164.41,21.25Zm4.75-2.75a1.94,1.94,0,0,0-.26-.86,2.2,2.2,0,0,0-.82-.87,2.4,2.4,0,0,0-1.29-.35,2.28,2.28,0,0,0-1.9.9,2,2,0,0,0-.48,1.19,1.71,1.71,0,0,0,.69,1.25,2.68,2.68,0,0,0,3.38,0A1.68,1.68,0,0,0,169.16,18.5Z" transform="translate(-12 -12)"/><path class="cls-2" d="M180,19.39h-6.57a2.07,2.07,0,0,0,.89,1,3.27,3.27,0,0,0,1.72.38,9.64,9.64,0,0,0,2.37-.38,4.35,4.35,0,0,1,.84-.15.7.7,0,0,1,.54.22A.77.77,0,0,1,180,21a.7.7,0,0,1-.23.53,3.61,3.61,0,0,1-1.53.55,10.61,10.61,0,0,1-2.32.27,4.32,4.32,0,0,1-3.08-1.09,3.5,3.5,0,0,1-1.15-2.67A3.44,3.44,0,0,1,173,15.88a4.36,4.36,0,0,1,2.88-1.06,4.57,4.57,0,0,1,1.79.35,3.71,3.71,0,0,1,1.21.74,4.43,4.43,0,0,1,.93,1.43,3.42,3.42,0,0,1,.25,1.37Zm-1.77-1.6a2.59,2.59,0,0,0-1-1,2.88,2.88,0,0,0-1.41-.34,2.83,2.83,0,0,0-1.41.34,2.55,2.55,0,0,0-1,1Z" transform="translate(-12 -12)"/><path class="cls-2" d="M189.62,19.39h-6.57a2.07,2.07,0,0,0,.89,1,3.3,3.3,0,0,0,1.72.38A9.64,9.64,0,0,0,188,20.4a4.29,4.29,0,0,1,.85-.15.69.69,0,0,1,.53.22.77.77,0,0,1,.22.57.7.7,0,0,1-.23.53,3.61,3.61,0,0,1-1.52.55,10.76,10.76,0,0,1-2.33.27,4.34,4.34,0,0,1-3.08-1.09,3.5,3.5,0,0,1-1.15-2.67,3.45,3.45,0,0,1,1.25-2.75,4.32,4.32,0,0,1,2.87-1.06,4.54,4.54,0,0,1,1.79.35,3.88,3.88,0,0,1,1.22.74,4.78,4.78,0,0,1,.93,1.43,3.61,3.61,0,0,1,.24,1.37Zm-1.77-1.6a2.46,2.46,0,0,0-1-1,3.09,3.09,0,0,0-2.82,0,2.55,2.55,0,0,0-1,1Z" transform="translate(-12 -12)"/><path class="cls-2" d="M197.7,15.32a.88.88,0,0,1,.6-.27.7.7,0,0,1,.56.25,1.17,1.17,0,0,1,.23.81v1a1.18,1.18,0,0,1-.23.82.76.76,0,0,1-.58.25.85.85,0,0,1-.55-.19,1.08,1.08,0,0,1-.26-.58,1,1,0,0,0-.45-.64,3.18,3.18,0,0,0-1.62-.38,2.52,2.52,0,0,0-1.82.67,2.25,2.25,0,0,0-.68,1.68,1.84,1.84,0,0,0,.65,1.48,3.47,3.47,0,0,0,2.18.54,5.68,5.68,0,0,0,1.64-.2,2.05,2.05,0,0,0,.71-.43.94.94,0,0,1,.61-.3.76.76,0,0,1,.56.24.81.81,0,0,1,.24.57,1.28,1.28,0,0,1-.72,1,5.71,5.71,0,0,1-3.16.71,4.77,4.77,0,0,1-2.91-.77,3.35,3.35,0,0,1-1.4-2.84,3.83,3.83,0,0,1,1.14-2.84,4.08,4.08,0,0,1,3-1.12,6,6,0,0,1,1.24.13A4.35,4.35,0,0,1,197.7,15.32Z" transform="translate(-12 -12)"/><path class="cls-2" d="M203.16,12v3.41a3.88,3.88,0,0,1,1-.44,3.62,3.62,0,0,1,1-.15,3.83,3.83,0,0,1,1.48.28,2.51,2.51,0,0,1,1.5,2.42v3a1.92,1.92,0,0,1,.8.11.77.77,0,0,1,.37.69.75.75,0,0,1-.24.58,1.26,1.26,0,0,1-.82.22h-1.83a1.28,1.28,0,0,1-.82-.22.78.78,0,0,1-.24-.59.76.76,0,0,1,.37-.68,1.66,1.66,0,0,1,.8-.11v-2.9a1.12,1.12,0,0,0-.28-.87,1.6,1.6,0,0,0-1.09-.34,2.06,2.06,0,0,0-.94.21,5.13,5.13,0,0,0-1.1.9v3a1.83,1.83,0,0,1,.79.11.8.8,0,0,1,.14,1.27,1.26,1.26,0,0,1-.82.22h-1.82a1.29,1.29,0,0,1-.83-.22.78.78,0,0,1-.24-.59.75.75,0,0,1,.38-.68,1.58,1.58,0,0,1,.79-.11V13.6h-.27a1.2,1.2,0,0,1-.82-.23.79.79,0,0,1,0-1.15,1.2,1.2,0,0,1,.82-.22Z" transform="translate(-12 -12)"/><path class="cls-2" d="M311.69,15.32a.86.86,0,0,1,.59-.27.72.72,0,0,1,.57.25,1.17,1.17,0,0,1,.22.81v1a1.18,1.18,0,0,1-.22.82.78.78,0,0,1-.58.25.88.88,0,0,1-.56-.19,1.16,1.16,0,0,1-.26-.58.94.94,0,0,0-.45-.64,3.13,3.13,0,0,0-1.62-.38,2.49,2.49,0,0,0-1.81.67,2.22,2.22,0,0,0-.69,1.68,1.82,1.82,0,0,0,.66,1.48,3.45,3.45,0,0,0,2.18.54,5.6,5.6,0,0,0,1.63-.2,2,2,0,0,0,.71-.43,1,1,0,0,1,.61-.3.78.78,0,0,1,.57.24.81.81,0,0,1,.24.57,1.29,1.29,0,0,1-.73,1,5.71,5.71,0,0,1-3.16.71,4.74,4.74,0,0,1-2.9-.77,3.34,3.34,0,0,1-1.41-2.84,3.83,3.83,0,0,1,1.14-2.84,4.09,4.09,0,0,1,3-1.12,6,6,0,0,1,1.23.13A4.58,4.58,0,0,1,311.69,15.32Z" transform="translate(-12 -12)"/><path class="cls-2" d="M319.59,12v8.53h1.93a1.2,1.2,0,0,1,.82.22.8.8,0,0,1,0,1.16,1.26,1.26,0,0,1-.82.22h-5.45a1.24,1.24,0,0,1-.82-.22.75.75,0,0,1-.25-.59.72.72,0,0,1,.25-.57,1.18,1.18,0,0,1,.82-.22H318V13.6H316.7a1.22,1.22,0,0,1-.82-.23.75.75,0,0,1-.25-.58.72.72,0,0,1,.25-.57,1.2,1.2,0,0,1,.82-.22Z" transform="translate(-12 -12)"/><path class="cls-2" d="M332.41,19.39h-6.57a2.07,2.07,0,0,0,.89,1,3.3,3.3,0,0,0,1.72.38,9.64,9.64,0,0,0,2.37-.38,4.35,4.35,0,0,1,.84-.15.7.7,0,0,1,.54.22.77.77,0,0,1,.22.57.7.7,0,0,1-.23.53,3.61,3.61,0,0,1-1.53.55,10.61,10.61,0,0,1-2.32.27,4.32,4.32,0,0,1-3.08-1.09,3.5,3.5,0,0,1-1.15-2.67,3.42,3.42,0,0,1,1.25-2.75,4.32,4.32,0,0,1,2.87-1.06,4.54,4.54,0,0,1,1.79.35,3.71,3.71,0,0,1,1.21.74,4.43,4.43,0,0,1,.93,1.43,3.42,3.42,0,0,1,.25,1.37Zm-1.77-1.6a2.46,2.46,0,0,0-1-1,2.88,2.88,0,0,0-1.41-.34,2.83,2.83,0,0,0-1.41.34,2.55,2.55,0,0,0-1,1Z" transform="translate(-12 -12)"/><path class="cls-2" d="M339.44,22.13v-.38a4.78,4.78,0,0,1-1.33.48,6.06,6.06,0,0,1-1.32.16,3.08,3.08,0,0,1-2.09-.68,2,2,0,0,1-.81-1.51,2.43,2.43,0,0,1,1-1.87,4.25,4.25,0,0,1,2.84-.87,11.2,11.2,0,0,1,1.68.16v-.38a.72.72,0,0,0-.31-.59,2.16,2.16,0,0,0-1.18-.23,7.93,7.93,0,0,0-1.84.29,3.53,3.53,0,0,1-.66.1.74.74,0,0,1-.54-.23.82.82,0,0,1-.22-.59.63.63,0,0,1,.08-.35.61.61,0,0,1,.21-.24,3,3,0,0,1,.59-.22c.4-.11.8-.19,1.21-.26a8,8,0,0,1,1.12-.1,3.65,3.65,0,0,1,2.31.65,2.11,2.11,0,0,1,.83,1.76v3.3h.27a1.23,1.23,0,0,1,.83.22.82.82,0,0,1,0,1.16,1.29,1.29,0,0,1-.83.22Zm0-2.87a9.73,9.73,0,0,0-1.78-.19,2.91,2.91,0,0,0-1.68.48.81.81,0,0,0-.43.62.41.41,0,0,0,.21.36,1.86,1.86,0,0,0,1.07.26,4.53,4.53,0,0,0,1.31-.22,5.21,5.21,0,0,0,1.3-.62Z" transform="translate(-12 -12)"/><path class="cls-2" d="M346,15v.54a3.1,3.1,0,0,1,1-.56,3.51,3.51,0,0,1,1.15-.19,3,3,0,0,1,2.25.89,2.6,2.6,0,0,1,.65,1.84v3a1.07,1.07,0,0,1,.75.22.82.82,0,0,1,0,1.16,1.29,1.29,0,0,1-.83.22h-1.44a1.29,1.29,0,0,1-.83-.22.78.78,0,0,1-.24-.59.75.75,0,0,1,.24-.57,1.07,1.07,0,0,1,.75-.22v-3a.93.93,0,0,0-.28-.76,1.66,1.66,0,0,0-1.1-.32,2.1,2.1,0,0,0-1,.22,4.2,4.2,0,0,0-1.06.91v3a1.83,1.83,0,0,1,.79.11.8.8,0,0,1,.14,1.27,1.26,1.26,0,0,1-.82.22h-1.82a1.29,1.29,0,0,1-.83-.22.78.78,0,0,1-.24-.59.76.76,0,0,1,.37-.68,1.94,1.94,0,0,1,.81-.11V16.64a1.11,1.11,0,0,1-.76-.23.75.75,0,0,1-.24-.58.72.72,0,0,1,.25-.57,1.2,1.2,0,0,1,.82-.23Z" transform="translate(-12 -12)"/><path class="cls-2" d="M368.53,16.91a3.15,3.15,0,0,0-.82-.36,3.45,3.45,0,0,0-2.37.18c-.17.09-.25.18-.25.29s.11.24.33.35a4.76,4.76,0,0,0,1.12.24,13.15,13.15,0,0,1,2.22.44,2.65,2.65,0,0,1,1.26.86,1.91,1.91,0,0,1,.45,1.2,1.74,1.74,0,0,1-.76,1.44,4.46,4.46,0,0,1-2.82.84,5.72,5.72,0,0,1-1.28-.13,4.49,4.49,0,0,1-1.09-.35.82.82,0,0,1-.25.16.86.86,0,0,1-.27.05.76.76,0,0,1-.6-.25,1.18,1.18,0,0,1-.22-.82v-.54a1.18,1.18,0,0,1,.22-.82.74.74,0,0,1,.58-.25.72.72,0,0,1,.49.16,1.06,1.06,0,0,1,.3.55,2.37,2.37,0,0,0,.89.47,3.87,3.87,0,0,0,1.18.16,3.47,3.47,0,0,0,1.71-.34c.2-.11.29-.23.29-.36s-.13-.38-.41-.51a6.19,6.19,0,0,0-1.71-.35,4.76,4.76,0,0,1-2.58-.78,1.81,1.81,0,0,1-.65-1.41,1.74,1.74,0,0,1,.73-1.43,4,4,0,0,1,2.58-.78,5.22,5.22,0,0,1,1.06.11,4.68,4.68,0,0,1,1,.32,1.39,1.39,0,0,1,.28-.16.6.6,0,0,1,.24-.06.73.73,0,0,1,.55.25,1.26,1.26,0,0,1,.21.82v.4a1.48,1.48,0,0,1-.12.71.79.79,0,0,1-.68.36.79.79,0,0,1-.51-.18A.84.84,0,0,1,368.53,16.91Z" transform="translate(-12 -12)"/><path class="cls-2" d="M374.41,21.25v2.62h1a1.2,1.2,0,0,1,.82.22.78.78,0,0,1,.25.58.76.76,0,0,1-.25.58,1.2,1.2,0,0,1-.82.22h-2.84a1.23,1.23,0,0,1-.83-.22.75.75,0,0,1-.24-.58.74.74,0,0,1,.25-.58,1.22,1.22,0,0,1,.82-.22h.27V16.64h-.27a1.23,1.23,0,0,1-.83-.23.81.81,0,0,1,0-1.15,1.23,1.23,0,0,1,.83-.23h1.87v.55a4.86,4.86,0,0,1,1.17-.57,4.27,4.27,0,0,1,1.23-.19,3.86,3.86,0,0,1,2.8,1.12,3.45,3.45,0,0,1,1.16,2.55,3.14,3.14,0,0,1-1.37,2.61,4.13,4.13,0,0,1-2.57.86,4.24,4.24,0,0,1-1.22-.18A5.72,5.72,0,0,1,374.41,21.25Zm4.75-2.75a1.94,1.94,0,0,0-.26-.86,2.2,2.2,0,0,0-.82-.87,2.4,2.4,0,0,0-1.29-.35,2.28,2.28,0,0,0-1.9.9,2,2,0,0,0-.48,1.19,1.71,1.71,0,0,0,.69,1.25,2.68,2.68,0,0,0,3.38,0A1.68,1.68,0,0,0,379.16,18.5Z" transform="translate(-12 -12)"/><path class="cls-2" d="M390,19.39h-6.57a2.07,2.07,0,0,0,.89,1,3.27,3.27,0,0,0,1.72.38,9.64,9.64,0,0,0,2.37-.38,4.35,4.35,0,0,1,.84-.15.7.7,0,0,1,.54.22A.77.77,0,0,1,390,21a.7.7,0,0,1-.23.53,3.61,3.61,0,0,1-1.53.55,10.61,10.61,0,0,1-2.32.27,4.32,4.32,0,0,1-3.08-1.09,3.5,3.5,0,0,1-1.15-2.67A3.44,3.44,0,0,1,383,15.88a4.36,4.36,0,0,1,2.88-1.06,4.57,4.57,0,0,1,1.79.35,3.71,3.71,0,0,1,1.21.74,4.43,4.43,0,0,1,.93,1.43,3.42,3.42,0,0,1,.25,1.37Zm-1.77-1.6a2.59,2.59,0,0,0-1-1,2.88,2.88,0,0,0-1.41-.34,2.83,2.83,0,0,0-1.41.34,2.55,2.55,0,0,0-1,1Z" transform="translate(-12 -12)"/><path class="cls-2" d="M399.62,19.39h-6.57a2.07,2.07,0,0,0,.89,1,3.3,3.3,0,0,0,1.72.38A9.64,9.64,0,0,0,398,20.4a4.29,4.29,0,0,1,.85-.15.69.69,0,0,1,.53.22.77.77,0,0,1,.22.57.7.7,0,0,1-.23.53,3.61,3.61,0,0,1-1.52.55,10.76,10.76,0,0,1-2.33.27,4.34,4.34,0,0,1-3.08-1.09,3.5,3.5,0,0,1-1.15-2.67,3.45,3.45,0,0,1,1.25-2.75,4.32,4.32,0,0,1,2.87-1.06,4.54,4.54,0,0,1,1.79.35,3.88,3.88,0,0,1,1.22.74,4.78,4.78,0,0,1,.93,1.43,3.61,3.61,0,0,1,.24,1.37Zm-1.77-1.6a2.46,2.46,0,0,0-1-1,3.09,3.09,0,0,0-2.82,0,2.55,2.55,0,0,0-1,1Z" transform="translate(-12 -12)"/><path class="cls-2" d="M407.7,15.32a.88.88,0,0,1,.6-.27.7.7,0,0,1,.56.25,1.17,1.17,0,0,1,.23.81v1a1.18,1.18,0,0,1-.23.82.76.76,0,0,1-.58.25.85.85,0,0,1-.55-.19,1.08,1.08,0,0,1-.26-.58,1,1,0,0,0-.45-.64,3.18,3.18,0,0,0-1.62-.38,2.52,2.52,0,0,0-1.82.67,2.25,2.25,0,0,0-.68,1.68,1.84,1.84,0,0,0,.65,1.48,3.47,3.47,0,0,0,2.18.54,5.68,5.68,0,0,0,1.64-.2,2.05,2.05,0,0,0,.71-.43.94.94,0,0,1,.61-.3.76.76,0,0,1,.56.24.81.81,0,0,1,.24.57,1.28,1.28,0,0,1-.72,1,5.71,5.71,0,0,1-3.16.71,4.77,4.77,0,0,1-2.91-.77,3.35,3.35,0,0,1-1.4-2.84,3.83,3.83,0,0,1,1.14-2.84,4.08,4.08,0,0,1,3-1.12,6,6,0,0,1,1.24.13A4.35,4.35,0,0,1,407.7,15.32Z" transform="translate(-12 -12)"/><path class="cls-2" d="M413.16,12v3.41a3.88,3.88,0,0,1,1-.44,3.62,3.62,0,0,1,1-.15,3.83,3.83,0,0,1,1.48.28,2.51,2.51,0,0,1,1.5,2.42v3a1.92,1.92,0,0,1,.8.11.77.77,0,0,1,.37.69.75.75,0,0,1-.24.58,1.26,1.26,0,0,1-.82.22h-1.83a1.28,1.28,0,0,1-.82-.22.78.78,0,0,1-.24-.59.76.76,0,0,1,.37-.68,1.66,1.66,0,0,1,.8-.11v-2.9a1.12,1.12,0,0,0-.28-.87,1.6,1.6,0,0,0-1.09-.34,2.06,2.06,0,0,0-.94.21,5.13,5.13,0,0,0-1.1.9v3a1.83,1.83,0,0,1,.79.11.8.8,0,0,1,.14,1.27,1.26,1.26,0,0,1-.82.22h-1.82a1.29,1.29,0,0,1-.83-.22.78.78,0,0,1-.24-.59.75.75,0,0,1,.38-.68,1.58,1.58,0,0,1,.79-.11V13.6h-.27a1.2,1.2,0,0,1-.82-.23.79.79,0,0,1,0-1.15,1.2,1.2,0,0,1,.82-.22Z" transform="translate(-12 -12)"/><path class="cls-2" d="M99.89,271.26v3.53H106v-1.3a1.86,1.86,0,0,1,.34-1.24,1.2,1.2,0,0,1,1.73,0,1.8,1.8,0,0,1,.34,1.24v3.7H97.11a1.86,1.86,0,0,1-1.24-.33,1.17,1.17,0,0,1-.37-.88,1.12,1.12,0,0,1,.38-.86,1.85,1.85,0,0,1,1.23-.33h.37v-9.4h-.37a1.86,1.86,0,0,1-1.24-.33,1.17,1.17,0,0,1-.37-.88,1.13,1.13,0,0,1,.37-.87,1.86,1.86,0,0,1,1.24-.33h10.78v3.65a1.85,1.85,0,0,1-.33,1.23,1.21,1.21,0,0,1-1.74,0,1.81,1.81,0,0,1-.33-1.23v-1.25h-5.6v3.47H102a2.59,2.59,0,0,1,.17-1.21,1.16,1.16,0,0,1,1-.57,1.09,1.09,0,0,1,.86.37,1.77,1.77,0,0,1,.34,1.23v2.77a2.06,2.06,0,0,1-.19,1.05,1.21,1.21,0,0,1-2,0,2.64,2.64,0,0,1-.17-1.22Z" transform="translate(-12 -12)"/><path class="cls-2" d="M114.8,266.55v.81a4.33,4.33,0,0,1,1.45-.84,5,5,0,0,1,1.72-.29,4.41,4.41,0,0,1,3.37,1.33,3.86,3.86,0,0,1,1,2.76v4.47a1.63,1.63,0,0,1,1.12.33,1.17,1.17,0,0,1,.37.88,1.14,1.14,0,0,1-.37.86,1.86,1.86,0,0,1-1.24.33H120a1.81,1.81,0,0,1-1.23-.33,1.22,1.22,0,0,1,0-1.74,1.63,1.63,0,0,1,1.12-.33v-4.54a1.42,1.42,0,0,0-.42-1.14,2.44,2.44,0,0,0-1.65-.47,3.11,3.11,0,0,0-1.46.32,6.43,6.43,0,0,0-1.59,1.36v4.47a2.71,2.71,0,0,1,1.2.17,1.15,1.15,0,0,1,.57,1,1.11,1.11,0,0,1-.37.86,1.81,1.81,0,0,1-1.23.33h-2.73a1.86,1.86,0,0,1-1.24-.33,1.13,1.13,0,0,1-.37-.88,1.18,1.18,0,0,1,.56-1,2.8,2.8,0,0,1,1.21-.17V269a1.56,1.56,0,0,1-1.12-.34,1.09,1.09,0,0,1-.37-.86,1.15,1.15,0,0,1,.37-.87,1.86,1.86,0,0,1,1.24-.33Z" transform="translate(-12 -12)"/><path class="cls-2" d="M135.86,267a1.32,1.32,0,0,1,.89-.41,1.1,1.1,0,0,1,.85.37,1.84,1.84,0,0,1,.34,1.23v1.54a1.86,1.86,0,0,1-.34,1.24,1.12,1.12,0,0,1-.87.36,1.28,1.28,0,0,1-.83-.28,1.53,1.53,0,0,1-.39-.86,1.39,1.39,0,0,0-.68-1,4.65,4.65,0,0,0-2.43-.56,3.74,3.74,0,0,0-2.72,1,3.4,3.4,0,0,0-1,2.52,2.71,2.71,0,0,0,1,2.22,5.09,5.09,0,0,0,3.27.82,8,8,0,0,0,2.45-.31,3,3,0,0,0,1.06-.64,1.46,1.46,0,0,1,.92-.45,1.13,1.13,0,0,1,.85.37,1.15,1.15,0,0,1,.35.85,1.93,1.93,0,0,1-1.08,1.51,8.66,8.66,0,0,1-4.74,1.07,7.2,7.2,0,0,1-4.36-1.16,5,5,0,0,1-2.11-4.27,5.69,5.69,0,0,1,1.71-4.24,6.07,6.07,0,0,1,4.47-1.69,9,9,0,0,1,1.85.19A6.57,6.57,0,0,1,135.86,267Z" transform="translate(-12 -12)"/><path class="cls-2" d="M153.24,272.07a5.23,5.23,0,0,1-.77,2.68,5.4,5.4,0,0,1-2.28,2.06,7,7,0,0,1-3.17.77,6.8,6.8,0,0,1-3.14-.76,5.52,5.52,0,0,1-2.29-2.05,5.24,5.24,0,0,1-.78-2.72,5.77,5.77,0,0,1,3.08-5,6.59,6.59,0,0,1,3.13-.8,6.68,6.68,0,0,1,3.16.82,5.57,5.57,0,0,1,2.29,2.19A5.77,5.77,0,0,1,153.24,272.07Zm-2.4,0A3.23,3.23,0,0,0,150,270a4.07,4.07,0,0,0-5.71-.27,3.23,3.23,0,0,0-1.09,2.41,2.85,2.85,0,0,0,1.1,2.11,4.25,4.25,0,0,0,5.43,0A2.85,2.85,0,0,0,150.84,272.08Z" transform="translate(-12 -12)"/><path class="cls-2" d="M167.4,262v12.8h.41a1.85,1.85,0,0,1,1.23.33,1.13,1.13,0,0,1,.37.88,1.11,1.11,0,0,1-.37.86,1.83,1.83,0,0,1-1.23.33H165v-.58a6.91,6.91,0,0,1-1.71.72,6.79,6.79,0,0,1-1.86.25,6,6,0,0,1-4.36-1.57,5.14,5.14,0,0,1-1.65-3.89,5.66,5.66,0,0,1,1.73-4.16,5.79,5.79,0,0,1,4.23-1.73,6,6,0,0,1,1.84.29,7.28,7.28,0,0,1,1.78.86v-3h-.41a1.81,1.81,0,0,1-1.23-.33,1.2,1.2,0,0,1,0-1.73,1.76,1.76,0,0,1,1.23-.34ZM165,272.19a3.4,3.4,0,0,0-1-2.52,3.67,3.67,0,0,0-5.1,0,3.38,3.38,0,0,0-1,2.48,2.8,2.8,0,0,0,.94,2.18,4.54,4.54,0,0,0,5.29,0A2.73,2.73,0,0,0,165,272.19Z" transform="translate(-12 -12)"/><path class="cls-2" d="M182.79,273.09h-9.85a3.07,3.07,0,0,0,1.33,1.51,5,5,0,0,0,2.58.58,15.11,15.11,0,0,0,3.55-.58,6.47,6.47,0,0,1,1.27-.23,1.07,1.07,0,0,1,.81.34,1.16,1.16,0,0,1,.33.85,1.05,1.05,0,0,1-.36.8,5.67,5.67,0,0,1-2.28.83,16.66,16.66,0,0,1-3.49.39,6.41,6.41,0,0,1-4.61-1.63,5.27,5.27,0,0,1-1.73-4,5.14,5.14,0,0,1,1.87-4.12,6.43,6.43,0,0,1,4.3-1.59,6.9,6.9,0,0,1,2.69.52,5.48,5.48,0,0,1,1.82,1.11,7,7,0,0,1,1.4,2.15,5.26,5.26,0,0,1,.37,2.06Zm-2.66-2.4a3.65,3.65,0,0,0-1.44-1.54,4.64,4.64,0,0,0-4.23,0,3.8,3.8,0,0,0-1.45,1.54Z" transform="translate(-12 -12)"/><path class="cls-2" d="M191.15,266.55v1.5a13,13,0,0,1,2.38-1.45,4.38,4.38,0,0,1,1.64-.37,3.62,3.62,0,0,1,2.27.87,1.59,1.59,0,0,1,.75,1.2,1.19,1.19,0,0,1-.36.87,1.15,1.15,0,0,1-.86.36,1.42,1.42,0,0,1-.93-.45,1.45,1.45,0,0,0-.88-.44,3.32,3.32,0,0,0-1.51.63,22.7,22.7,0,0,0-2.5,1.9v3.62h3.42a1.86,1.86,0,0,1,1.24.33,1.17,1.17,0,0,1,.37.88,1.14,1.14,0,0,1-.37.86,1.86,1.86,0,0,1-1.24.33h-7.25a1.86,1.86,0,0,1-1.24-.33,1.13,1.13,0,0,1-.37-.88,1.11,1.11,0,0,1,.37-.86,1.86,1.86,0,0,1,1.24-.33h1.43V269h-.87a1.86,1.86,0,0,1-1.24-.33,1.13,1.13,0,0,1-.37-.87,1.15,1.15,0,0,1,.37-.87,1.86,1.86,0,0,1,1.24-.33Z" transform="translate(-12 -12)"/><path class="cls-2" d="M153,333.32h-5.83l-.59,1.47h.59a1.86,1.86,0,0,1,1.24.33,1.16,1.16,0,0,1,.36.88,1.13,1.13,0,0,1-.36.86,1.86,1.86,0,0,1-1.24.33h-3.24a1.83,1.83,0,0,1-1.23-.33,1.13,1.13,0,0,1-.37-.88,1.08,1.08,0,0,1,.39-.87,1.78,1.78,0,0,1,1.27-.32l3.78-9.4h-1.57a1.86,1.86,0,0,1-1.24-.33,1.13,1.13,0,0,1-.37-.88,1.1,1.1,0,0,1,.37-.87,1.86,1.86,0,0,1,1.24-.33h5.19l4.78,11.8a2.12,2.12,0,0,1,1.11.19,1.18,1.18,0,0,1,.54,1,1.13,1.13,0,0,1-.36.86,1.81,1.81,0,0,1-1.23.33H153a1.83,1.83,0,0,1-1.23-.33,1.13,1.13,0,0,1-.37-.88,1.11,1.11,0,0,1,.37-.86,1.83,1.83,0,0,1,1.23-.33h.59Zm-1-2.4L150,326.16l-1.95,4.76Z" transform="translate(-12 -12)"/><path class="cls-2" d="M162.43,331.77v3h.87a1.86,1.86,0,0,1,1.24.33,1.17,1.17,0,0,1,.37.88,1.14,1.14,0,0,1-.37.86,1.86,1.86,0,0,1-1.24.33h-3.64a1.86,1.86,0,0,1-1.24-.33,1.13,1.13,0,0,1-.37-.88,1.12,1.12,0,0,1,.38-.86,1.85,1.85,0,0,1,1.23-.33H160v-9.4h-.37a1.86,1.86,0,0,1-1.24-.33,1.13,1.13,0,0,1-.37-.88,1.1,1.1,0,0,1,.37-.87,1.86,1.86,0,0,1,1.24-.33h5.43a5.71,5.71,0,0,1,3.95,1.26,4,4,0,0,1,1.4,3.06,3.46,3.46,0,0,1-.66,2.05,5.7,5.7,0,0,1-2,1.63,16.13,16.13,0,0,1,1.63,1.71c.36.45.84,1.14,1.45,2.09a2.5,2.5,0,0,1,1.21.19,1.17,1.17,0,0,1,.53,1,1.11,1.11,0,0,1-.37.86,1.81,1.81,0,0,1-1.23.33h-1.37c-1.94-3-3.56-4.82-4.84-5.42Zm0-2.41h1.88a5.18,5.18,0,0,0,1.86-.31,3.52,3.52,0,0,0,1.48-.89,1.47,1.47,0,0,0,.39-.93,1.66,1.66,0,0,0-.73-1.26,3.33,3.33,0,0,0-2.12-.58h-2.76Z" transform="translate(-12 -12)"/><path class="cls-2" d="M189.3,334.79v-9.4a1.63,1.63,0,0,1-1.12-.35,1.1,1.1,0,0,1-.36-.86,1.12,1.12,0,0,1,.36-.87,1.86,1.86,0,0,1,1.24-.33h5a6.28,6.28,0,0,1,2.29.43,5.35,5.35,0,0,1,1.8,1.1,7.92,7.92,0,0,1,1.07,1.39,7.7,7.7,0,0,1,.84,1.74,6.89,6.89,0,0,1,.28,2.12v1.15a6.54,6.54,0,0,1-.52,2.7,5.27,5.27,0,0,1-1.35,1.92,6.59,6.59,0,0,1-1.58,1.1,7.11,7.11,0,0,1-3,.55h-4.83a1.86,1.86,0,0,1-1.24-.33,1.16,1.16,0,0,1-.36-.88,1.12,1.12,0,0,1,.36-.86A1.55,1.55,0,0,1,189.3,334.79Zm2.41,0h2.55a4.57,4.57,0,0,0,2.16-.41,3.78,3.78,0,0,0,1.43-1.37,4.32,4.32,0,0,0,.48-2.16v-1.14a4.35,4.35,0,0,0-.44-2,4.24,4.24,0,0,0-1.53-1.83,4.13,4.13,0,0,0-2.12-.5h-2.53Z" transform="translate(-12 -12)"/><path class="cls-2" d="M215.59,333.09h-9.86a3.12,3.12,0,0,0,1.33,1.51,5,5,0,0,0,2.59.58,15.19,15.19,0,0,0,3.55-.58,6.53,6.53,0,0,1,1.26-.23,1.07,1.07,0,0,1,.81.34,1.16,1.16,0,0,1,.33.85,1.08,1.08,0,0,1-.35.8,5.74,5.74,0,0,1-2.29.83,16.59,16.59,0,0,1-3.49.39,6.43,6.43,0,0,1-4.61-1.63,5.31,5.31,0,0,1-1.73-4,5.14,5.14,0,0,1,1.87-4.12,6.46,6.46,0,0,1,4.31-1.59,7,7,0,0,1,2.69.52,5.7,5.7,0,0,1,1.82,1.11,7,7,0,0,1,1.39,2.15,5.26,5.26,0,0,1,.38,2.06Zm-2.66-2.4a3.78,3.78,0,0,0-1.44-1.54,4.21,4.21,0,0,0-2.12-.51,4.15,4.15,0,0,0-2.11.51,3.82,3.82,0,0,0-1.46,1.54Z" transform="translate(-12 -12)"/><path class="cls-2" d="M228.19,327a1.29,1.29,0,0,1,.89-.41,1.13,1.13,0,0,1,.85.37,1.85,1.85,0,0,1,.33,1.23v1.54a1.86,1.86,0,0,1-.33,1.24,1.16,1.16,0,0,1-.88.36,1.3,1.3,0,0,1-.83-.28,1.68,1.68,0,0,1-.39-.86,1.39,1.39,0,0,0-.68-1,4.64,4.64,0,0,0-2.42-.56,3.78,3.78,0,0,0-2.73,1,3.39,3.39,0,0,0-1,2.52,2.74,2.74,0,0,0,1,2.22,5.12,5.12,0,0,0,3.27.82,7.94,7.94,0,0,0,2.45-.31,3,3,0,0,0,1.07-.64,1.44,1.44,0,0,1,.91-.45,1.13,1.13,0,0,1,.85.37,1.16,1.16,0,0,1,.36.85,1.92,1.92,0,0,1-1.09,1.51,8.66,8.66,0,0,1-4.74,1.07,7.17,7.17,0,0,1-4.35-1.16,5,5,0,0,1-2.11-4.27,5.69,5.69,0,0,1,1.71-4.24,6.06,6.06,0,0,1,4.46-1.69,8.91,8.91,0,0,1,1.85.19A6.8,6.8,0,0,1,228.19,327Z" transform="translate(-12 -12)"/><path class="cls-2" d="M245.56,332.07a5.22,5.22,0,0,1-.76,2.68,5.48,5.48,0,0,1-2.29,2.06,7,7,0,0,1-3.17.77,6.83,6.83,0,0,1-3.14-.76,5.43,5.43,0,0,1-2.28-2.05,5.16,5.16,0,0,1-.79-2.72,5.63,5.63,0,0,1,.8-2.83,5.57,5.57,0,0,1,2.29-2.19,6.53,6.53,0,0,1,3.12-.8,6.65,6.65,0,0,1,3.16.82,5.57,5.57,0,0,1,2.29,2.19A5.66,5.66,0,0,1,245.56,332.07Zm-2.4,0a3.23,3.23,0,0,0-.83-2.13,4.07,4.07,0,0,0-5.71-.27,3.26,3.26,0,0,0-1.09,2.41,2.85,2.85,0,0,0,1.1,2.11,4.25,4.25,0,0,0,5.43,0A2.85,2.85,0,0,0,243.16,332.08Z" transform="translate(-12 -12)"/><path class="cls-2" d="M259.72,322v12.8h.41a1.85,1.85,0,0,1,1.23.33,1.2,1.2,0,0,1,0,1.74,1.86,1.86,0,0,1-1.24.33h-2.81v-.58a7,7,0,0,1-1.72.72,6.79,6.79,0,0,1-1.86.25,6.08,6.08,0,0,1-4.36-1.57,5.14,5.14,0,0,1-1.65-3.89,5.63,5.63,0,0,1,1.74-4.16,5.76,5.76,0,0,1,4.23-1.73,6.15,6.15,0,0,1,1.84.29,7.45,7.45,0,0,1,1.78.86v-3h-.41a1.86,1.86,0,0,1-1.24-.33,1.2,1.2,0,0,1,0-1.73,1.8,1.8,0,0,1,1.24-.34Zm-2.4,10.2a3.4,3.4,0,0,0-1.05-2.52,3.66,3.66,0,0,0-5.09,0,3.35,3.35,0,0,0-1.05,2.48,2.83,2.83,0,0,0,.94,2.18,4.56,4.56,0,0,0,5.3,0A2.77,2.77,0,0,0,257.32,332.19Z" transform="translate(-12 -12)"/><path class="cls-2" d="M275.12,333.09h-9.86a3.12,3.12,0,0,0,1.33,1.51,5,5,0,0,0,2.59.58,15.19,15.19,0,0,0,3.55-.58,6.53,6.53,0,0,1,1.26-.23,1.07,1.07,0,0,1,.81.34,1.16,1.16,0,0,1,.33.85,1.08,1.08,0,0,1-.35.8,5.81,5.81,0,0,1-2.29.83,16.59,16.59,0,0,1-3.49.39,6.43,6.43,0,0,1-4.61-1.63,5.31,5.31,0,0,1-1.73-4,5.14,5.14,0,0,1,1.87-4.12,6.46,6.46,0,0,1,4.31-1.59,7,7,0,0,1,2.69.52,5.7,5.7,0,0,1,1.82,1.11,7,7,0,0,1,1.39,2.15,5.26,5.26,0,0,1,.38,2.06Zm-2.66-2.4a3.78,3.78,0,0,0-1.44-1.54,4.25,4.25,0,0,0-2.13-.51,4.14,4.14,0,0,0-2.1.51,3.82,3.82,0,0,0-1.46,1.54Z" transform="translate(-12 -12)"/><path class="cls-2" d="M283.47,326.55v1.5a13,13,0,0,1,2.39-1.45,4.29,4.29,0,0,1,1.63-.37,3.66,3.66,0,0,1,2.28.87,1.59,1.59,0,0,1,.75,1.2,1.23,1.23,0,0,1-1.22,1.23,1.44,1.44,0,0,1-.94-.45,1.43,1.43,0,0,0-.88-.44,3.32,3.32,0,0,0-1.51.63,23.7,23.7,0,0,0-2.5,1.9v3.62h3.42a1.86,1.86,0,0,1,1.24.33,1.13,1.13,0,0,1,.37.88,1.11,1.11,0,0,1-.37.86,1.86,1.86,0,0,1-1.24.33h-7.25a1.86,1.86,0,0,1-1.24-.33A1.16,1.16,0,0,1,278,336a1.13,1.13,0,0,1,.36-.86,1.86,1.86,0,0,1,1.24-.33h1.43V329h-.87a1.81,1.81,0,0,1-1.23-.33,1.1,1.1,0,0,1-.37-.87,1.11,1.11,0,0,1,.37-.87,1.81,1.81,0,0,1,1.23-.33Z" transform="translate(-12 -12)"/><path class="cls-2" d="M329.77,271.26v3.53h6.13v-1.3a1.86,1.86,0,0,1,.33-1.24,1.21,1.21,0,0,1,1.74,0,1.86,1.86,0,0,1,.33,1.24v3.7H327a1.86,1.86,0,0,1-1.24-.33,1.16,1.16,0,0,1-.36-.88,1.11,1.11,0,0,1,.37-.86,1.85,1.85,0,0,1,1.23-.33h.38v-9.4H327a1.86,1.86,0,0,1-1.24-.33,1.16,1.16,0,0,1-.36-.88,1.12,1.12,0,0,1,.36-.87A1.86,1.86,0,0,1,327,263h10.78v3.65a1.85,1.85,0,0,1-.33,1.23,1.06,1.06,0,0,1-.86.37,1.13,1.13,0,0,1-.88-.37,1.81,1.81,0,0,1-.33-1.23v-1.25h-5.6v3.47h2.11a2.74,2.74,0,0,1,.17-1.21,1.17,1.17,0,0,1,1-.57,1.11,1.11,0,0,1,.87.37,1.83,1.83,0,0,1,.33,1.23v2.77a2,2,0,0,1-.19,1.05,1.15,1.15,0,0,1-1,.55,1.17,1.17,0,0,1-1-.57,2.79,2.79,0,0,1-.17-1.22Z" transform="translate(-12 -12)"/><path class="cls-2" d="M343.41,266.55v.68a3.85,3.85,0,0,1,1.06-.79,2.54,2.54,0,0,1,1.1-.22,2.35,2.35,0,0,1,1,.26,3.82,3.82,0,0,1,1,.77,4.41,4.41,0,0,1,1.26-.76,3.47,3.47,0,0,1,1.3-.26,3.19,3.19,0,0,1,2.17.72,3.07,3.07,0,0,1,1.1,2.46v5.38a1.6,1.6,0,0,1,1.12.34,1.22,1.22,0,0,1,0,1.73,1.86,1.86,0,0,1-1.24.33h-2.28v-7.58a1.12,1.12,0,0,0-.2-.76.81.81,0,0,0-.61-.21,1.41,1.41,0,0,0-.74.21,4.87,4.87,0,0,0-1.05,1.1v4.84a1.55,1.55,0,0,1,1.11.34,1.22,1.22,0,0,1,0,1.73,1.81,1.81,0,0,1-1.23.33h-2.28v-7.58a1.1,1.1,0,0,0-.21-.76.82.82,0,0,0-.61-.21,1.5,1.5,0,0,0-.84.26,4.44,4.44,0,0,0-1,1.05v4.84a1.6,1.6,0,0,1,1.12.34,1.2,1.2,0,0,1,0,1.73,1.86,1.86,0,0,1-1.24.33h-2.17a1.83,1.83,0,0,1-1.23-.33,1.22,1.22,0,0,1,0-1.74,1.64,1.64,0,0,1,1.13-.33V269a1.59,1.59,0,0,1-1.13-.34,1.21,1.21,0,0,1,0-1.73,1.83,1.83,0,0,1,1.23-.33Z" transform="translate(-12 -12)"/><path class="cls-2" d="M359,262v5.39a7.34,7.34,0,0,1,1.79-.86,6,6,0,0,1,1.83-.29,5.76,5.76,0,0,1,4.23,1.73,5.63,5.63,0,0,1,1.74,4.16A5.11,5.11,0,0,1,366.9,276a6,6,0,0,1-4.36,1.57,6.72,6.72,0,0,1-1.85-.25,7.31,7.31,0,0,1-1.72-.72v.58h-2.81a1.86,1.86,0,0,1-1.24-.33,1.17,1.17,0,0,1-.37-.88,1.12,1.12,0,0,1,.38-.86,1.85,1.85,0,0,1,1.23-.33h.41v-10.4h-.41a1.86,1.86,0,0,1-1.24-.33,1.2,1.2,0,0,1,0-1.73,1.8,1.8,0,0,1,1.24-.34Zm7.18,10.2a3.4,3.4,0,0,0-1-2.52,3.67,3.67,0,0,0-5.1,0,3.38,3.38,0,0,0-1,2.48,2.8,2.8,0,0,0,.94,2.18,4.56,4.56,0,0,0,5.3,0A2.76,2.76,0,0,0,366.15,272.19Z" transform="translate(-12 -12)"/><path class="cls-2" d="M382.91,273.09h-9.85a3.07,3.07,0,0,0,1.33,1.51,5,5,0,0,0,2.58.58,15.19,15.19,0,0,0,3.55-.58,6.47,6.47,0,0,1,1.27-.23,1.07,1.07,0,0,1,.81.34,1.2,1.2,0,0,1,.32.85,1,1,0,0,1-.35.8,5.67,5.67,0,0,1-2.28.83,16.68,16.68,0,0,1-3.5.39,6.44,6.44,0,0,1-4.61-1.63,5.3,5.3,0,0,1-1.72-4,5.16,5.16,0,0,1,1.86-4.12,6.48,6.48,0,0,1,4.31-1.59,6.93,6.93,0,0,1,2.69.52,5.59,5.59,0,0,1,1.82,1.11,7,7,0,0,1,1.4,2.15,5.26,5.26,0,0,1,.37,2.06Zm-2.66-2.4a3.78,3.78,0,0,0-1.44-1.54,4.64,4.64,0,0,0-4.23,0,3.8,3.8,0,0,0-1.45,1.54Z" transform="translate(-12 -12)"/><path class="cls-2" d="M397.28,262v12.8h.41a1.85,1.85,0,0,1,1.23.33,1.13,1.13,0,0,1,.37.88,1.11,1.11,0,0,1-.37.86,1.81,1.81,0,0,1-1.23.33h-2.81v-.58a7,7,0,0,1-1.72.72,6.79,6.79,0,0,1-1.86.25,6.06,6.06,0,0,1-4.36-1.57,5.14,5.14,0,0,1-1.65-3.89A5.66,5.66,0,0,1,387,268a5.79,5.79,0,0,1,4.23-1.73,6,6,0,0,1,1.84.29,7.34,7.34,0,0,1,1.79.86v-3h-.41a1.86,1.86,0,0,1-1.24-.33,1.2,1.2,0,0,1,0-1.73,1.8,1.8,0,0,1,1.24-.34Zm-2.4,10.2a3.4,3.4,0,0,0-1.05-2.52,3.66,3.66,0,0,0-5.09,0,3.35,3.35,0,0,0-1.05,2.48,2.8,2.8,0,0,0,.94,2.18,3.83,3.83,0,0,0,2.65.85,3.89,3.89,0,0,0,2.65-.85A2.77,2.77,0,0,0,394.88,272.19Z" transform="translate(-12 -12)"/><path class="cls-2" d="M334.3,164.79v-9.4a1.63,1.63,0,0,1-1.12-.35,1.1,1.1,0,0,1-.36-.86,1.12,1.12,0,0,1,.36-.87,1.86,1.86,0,0,1,1.24-.33h5a6.28,6.28,0,0,1,2.29.43,5.35,5.35,0,0,1,1.8,1.1,7.92,7.92,0,0,1,1.07,1.39,7.7,7.7,0,0,1,.84,1.74,6.89,6.89,0,0,1,.28,2.12v1.15a6.54,6.54,0,0,1-.52,2.7,5.27,5.27,0,0,1-1.35,1.92,6.59,6.59,0,0,1-1.58,1.1,7.11,7.11,0,0,1-3,.55h-4.83a1.86,1.86,0,0,1-1.24-.33,1.16,1.16,0,0,1-.36-.88,1.12,1.12,0,0,1,.36-.86A1.55,1.55,0,0,1,334.3,164.79Zm2.41,0h2.55a4.57,4.57,0,0,0,2.16-.41,3.78,3.78,0,0,0,1.43-1.37,4.32,4.32,0,0,0,.48-2.16v-1.14a4.35,4.35,0,0,0-.44-2,4.24,4.24,0,0,0-1.53-1.83,4.13,4.13,0,0,0-2.12-.5h-2.53Z" transform="translate(-12 -12)"/><path class="cls-2" d="M353.17,162.32v2.47h2.43a1.83,1.83,0,0,1,1.23.33,1.13,1.13,0,0,1,.37.88,1.11,1.11,0,0,1-.37.86,1.83,1.83,0,0,1-1.23.33h-5.21a1.83,1.83,0,0,1-1.23-.33,1.13,1.13,0,0,1-.37-.88,1.11,1.11,0,0,1,.37-.86,1.85,1.85,0,0,1,1.23-.33h.38v-9.4h-.38a1.83,1.83,0,0,1-1.23-.33,1.13,1.13,0,0,1-.37-.88,1.1,1.1,0,0,1,.37-.87,1.83,1.83,0,0,1,1.23-.33h5.53a5.43,5.43,0,0,1,3.87,1.33,4.39,4.39,0,0,1,.94,5.23,4.58,4.58,0,0,1-1.21,1.39,5.72,5.72,0,0,1-4.08,1.38Zm0-2.41h2.23a4,4,0,0,0,2.49-.7,2.13,2.13,0,0,0,.92-1.71,1.91,1.91,0,0,0-.75-1.48,3.17,3.17,0,0,0-2.12-.63h-2.77Z" transform="translate(-12 -12)"/><path class="cls-2" d="M364.07,164.79v-9.4a1.66,1.66,0,0,1-1.13-.35,1.21,1.21,0,0,1,0-1.73,1.86,1.86,0,0,1,1.24-.33h5a6.24,6.24,0,0,1,2.29.43,5.25,5.25,0,0,1,1.8,1.1,7.92,7.92,0,0,1,1.08,1.39,7.25,7.25,0,0,1,.83,1.74,6.89,6.89,0,0,1,.28,2.12v1.15a6.7,6.7,0,0,1-.51,2.7,5.41,5.41,0,0,1-1.36,1.92,6.55,6.55,0,0,1-1.57,1.1,7.12,7.12,0,0,1-3,.55h-4.82a1.86,1.86,0,0,1-1.24-.33,1.13,1.13,0,0,1-.37-.88,1.09,1.09,0,0,1,.37-.86A1.55,1.55,0,0,1,364.07,164.79Zm2.4,0H369a4.5,4.5,0,0,0,2.15-.41,3.78,3.78,0,0,0,1.43-1.37,4.32,4.32,0,0,0,.48-2.16v-1.14a4.35,4.35,0,0,0-.43-2,4.24,4.24,0,0,0-1.53-1.83,4.2,4.2,0,0,0-2.13-.5h-2.53Z" transform="translate(-12 -12)"/><path class="cls-2" d="M382.94,162.32v2.47h2.42a1.86,1.86,0,0,1,1.24.33,1.17,1.17,0,0,1,.37.88,1.14,1.14,0,0,1-.37.86,1.86,1.86,0,0,1-1.24.33h-5.2a1.86,1.86,0,0,1-1.24-.33,1.17,1.17,0,0,1-.37-.88,1.12,1.12,0,0,1,.38-.86,1.85,1.85,0,0,1,1.23-.33h.37v-9.4h-.37a1.86,1.86,0,0,1-1.24-.33,1.17,1.17,0,0,1-.37-.88,1.13,1.13,0,0,1,.37-.87,1.86,1.86,0,0,1,1.24-.33h5.53a5.42,5.42,0,0,1,3.86,1.33,4.39,4.39,0,0,1,.94,5.23,4.45,4.45,0,0,1-1.21,1.39,5.67,5.67,0,0,1-4.07,1.38Zm0-2.41h2.22a4,4,0,0,0,2.49-.7,2.1,2.1,0,0,0,.92-1.71,1.93,1.93,0,0,0-.74-1.48,3.22,3.22,0,0,0-2.13-.63h-2.76Z" transform="translate(-12 -12)"/><path class="cls-2" d="M303.79,385.39v9.4H309v-2.27a1.8,1.8,0,0,1,.34-1.24,1.2,1.2,0,0,1,1.73,0,1.86,1.86,0,0,1,.33,1.24v4.67H300a1.84,1.84,0,0,1-1.24-.33,1.13,1.13,0,0,1-.37-.88,1.11,1.11,0,0,1,.37-.86,1.84,1.84,0,0,1,1.24-.33h1.39v-9.4H300a1.84,1.84,0,0,1-1.24-.33,1.13,1.13,0,0,1-.37-.88,1.1,1.1,0,0,1,.37-.87A1.84,1.84,0,0,1,300,383h5.2a1.81,1.81,0,0,1,1.23.33,1.08,1.08,0,0,1,.37.86,1.13,1.13,0,0,1-.37.88,1.81,1.81,0,0,1-1.23.33Z" transform="translate(-12 -12)"/><path class="cls-2" d="M320.87,386.55v8.24h2.88a1.86,1.86,0,0,1,1.24.33,1.16,1.16,0,0,1,.36.88,1.13,1.13,0,0,1-.36.86,1.86,1.86,0,0,1-1.24.33h-8.17a1.86,1.86,0,0,1-1.24-.33A1.16,1.16,0,0,1,314,396a1.13,1.13,0,0,1,.36-.86,1.86,1.86,0,0,1,1.24-.33h2.88V389h-1.93a1.85,1.85,0,0,1-1.23-.33,1.11,1.11,0,0,1-.38-.87,1.15,1.15,0,0,1,.37-.87,1.86,1.86,0,0,1,1.24-.33Zm-.33-4.56v2.55h-2.86V382Z" transform="translate(-12 -12)"/><path class="cls-2" d="M332.13,386.55v.81a4.29,4.29,0,0,1,1.44-.84,5,5,0,0,1,1.72-.29,4.43,4.43,0,0,1,3.38,1.33,3.9,3.9,0,0,1,1,2.76v4.47a1.66,1.66,0,0,1,1.13.33,1.16,1.16,0,0,1,.36.88,1.11,1.11,0,0,1-.37.86,1.86,1.86,0,0,1-1.24.33h-2.16a1.86,1.86,0,0,1-1.24-.33,1.22,1.22,0,0,1,0-1.74,1.66,1.66,0,0,1,1.13-.33v-4.54a1.42,1.42,0,0,0-.42-1.14,2.47,2.47,0,0,0-1.66-.47,3.11,3.11,0,0,0-1.46.32,6.61,6.61,0,0,0-1.58,1.36v4.47a2.69,2.69,0,0,1,1.19.17,1.21,1.21,0,0,1,.21,1.9,1.86,1.86,0,0,1-1.24.33h-2.73a1.86,1.86,0,0,1-1.24-.33,1.23,1.23,0,0,1,.2-1.9,2.77,2.77,0,0,1,1.2-.17V389a1.58,1.58,0,0,1-1.12-.34,1.21,1.21,0,0,1,0-1.73,1.81,1.81,0,0,1,1.23-.33Z" transform="translate(-12 -12)"/><path class="cls-2" d="M355.47,393.09h-9.85A3.07,3.07,0,0,0,347,394.6a5,5,0,0,0,2.58.58,15.19,15.19,0,0,0,3.55-.58,6.47,6.47,0,0,1,1.27-.23,1,1,0,0,1,.8.34,1.16,1.16,0,0,1,.33.85,1,1,0,0,1-.35.8,5.67,5.67,0,0,1-2.28.83,16.75,16.75,0,0,1-3.5.39,6.43,6.43,0,0,1-4.61-1.63,5.31,5.31,0,0,1-1.73-4,5.17,5.17,0,0,1,1.87-4.12,6.46,6.46,0,0,1,4.31-1.59,6.93,6.93,0,0,1,2.69.52,5.59,5.59,0,0,1,1.82,1.11,7.21,7.21,0,0,1,1.4,2.15,5.26,5.26,0,0,1,.37,2.06Zm-2.66-2.4a3.78,3.78,0,0,0-1.44-1.54,4.64,4.64,0,0,0-4.23,0,3.73,3.73,0,0,0-1.45,1.54Z" transform="translate(-12 -12)"/><path class="cls-2" d="M366.49,397.19v-.56a7.91,7.91,0,0,1-2,.72,9.19,9.19,0,0,1-2,.24,4.66,4.66,0,0,1-3.14-1,3,3,0,0,1-1.2-2.26,3.67,3.67,0,0,1,1.54-2.81A6.41,6.41,0,0,1,364,390.2a15.46,15.46,0,0,1,2.52.23v-.57A1,1,0,0,0,366,389a3.15,3.15,0,0,0-1.76-.34,12.17,12.17,0,0,0-2.77.42,4.58,4.58,0,0,1-1,.15,1.11,1.11,0,0,1-.82-.34,1.26,1.26,0,0,1-.33-.89,1.12,1.12,0,0,1,.12-.53.93.93,0,0,1,.33-.35,4,4,0,0,1,.87-.33,18.38,18.38,0,0,1,1.82-.39,10.65,10.65,0,0,1,1.68-.15,5.53,5.53,0,0,1,3.47,1,3.17,3.17,0,0,1,1.24,2.64v5h.41a1.81,1.81,0,0,1,1.23.33,1.13,1.13,0,0,1,.37.88,1.11,1.11,0,0,1-.37.86,1.81,1.81,0,0,1-1.23.33Zm0-4.3a13.85,13.85,0,0,0-2.66-.28,4.42,4.42,0,0,0-2.52.71q-.66.46-.66.93a.62.62,0,0,0,.32.55,2.85,2.85,0,0,0,1.6.39,6.9,6.9,0,0,0,2-.34,7.4,7.4,0,0,0,2-.93Z" transform="translate(-12 -12)"/><path class="cls-2" d="M378.71,386.55v1.5a13,13,0,0,1,2.38-1.45,4.34,4.34,0,0,1,1.64-.37,3.62,3.62,0,0,1,2.27.87,1.59,1.59,0,0,1,.75,1.2,1.19,1.19,0,0,1-.36.87,1.15,1.15,0,0,1-.86.36,1.46,1.46,0,0,1-.94-.45,1.41,1.41,0,0,0-.87-.44,3.32,3.32,0,0,0-1.51.63,22.7,22.7,0,0,0-2.5,1.9v3.62h3.42a1.86,1.86,0,0,1,1.24.33,1.17,1.17,0,0,1,.37.88,1.14,1.14,0,0,1-.37.86,1.86,1.86,0,0,1-1.24.33h-7.25a1.86,1.86,0,0,1-1.24-.33,1.13,1.13,0,0,1-.37-.88,1.11,1.11,0,0,1,.37-.86,1.86,1.86,0,0,1,1.24-.33h1.43V389h-.87a1.86,1.86,0,0,1-1.24-.33,1.13,1.13,0,0,1-.37-.87,1.15,1.15,0,0,1,.37-.87,1.86,1.86,0,0,1,1.24-.33Z" transform="translate(-12 -12)"/><line class="cls-3" x1="60" y1="278" x2="60" y2="290.94"/><polygon class="cls-2" points="60 298 55.94 288.06 60 290.42 64.06 288.06 60 298"/><line class="cls-3" x1="100" y1="278" x2="100" y2="290.94"/><polygon class="cls-2" points="100 298 95.94 288.06 100 290.42 104.06 288.06 100 298"/><line class="cls-3" x1="140" y1="278" x2="140" y2="290.94"/><polygon class="cls-2" points="140 298 135.94 288.06 140 290.42 144.06 288.06 140 298"/><line class="cls-3" x1="180" y1="278" x2="180" y2="290.94"/><polygon class="cls-2" points="180 298 175.94 288.06 180 290.42 184.06 288.06 180 298"/><line class="cls-3" x1="220" y1="278" x2="220" y2="290.94"/><polygon class="cls-2" points="220 298 215.94 288.06 220 290.42 224.06 288.06 220 298"/><line class="cls-3" x1="270" y1="278" x2="270" y2="290.94"/><polygon class="cls-2" points="270 298 265.94 288.06 270 290.42 274.06 288.06 270 298"/><line class="cls-3" x1="270" y1="338" x2="270" y2="350.94"/><polygon class="cls-2" points="270 358 265.94 348.06 270 350.42 274.06 348.06 270 358"/><line class="cls-3" x1="390" y1="278" x2="390" y2="290.94"/><polygon class="cls-2" points="390 298 385.94 288.06 390 290.42 394.06 288.06 390 298"/><circle class="cls-3" cx="390" cy="203" r="5"/><line class="cls-3" x1="350" y1="278" x2="350" y2="290.94"/><polygon class="cls-2" points="350 298 345.94 288.06 350 290.42 354.06 288.06 350 298"/><circle class="cls-3" cx="350" cy="203" r="5"/><line class="cls-3" x1="310" y1="278" x2="310" y2="290.94"/><polygon class="cls-2" points="310 298 305.94 288.06 310 290.42 314.06 288.06 310 298"/><line class="cls-3" x1="310" y1="278" x2="310" y2="290.94"/><polygon class="cls-2" points="310 298 305.94 288.06 310 290.42 314.06 288.06 310 298"/><line class="cls-3" x1="20" y1="278" x2="20" y2="290.94"/><polygon class="cls-2" points="20 298 15.94 288.06 20 290.42 24.06 288.06 20 298"/><line class="cls-3" x1="390" y1="218" x2="390" y2="230.94"/><polygon class="cls-2" points="390 238 385.94 228.06 390 230.42 394.06 228.06 390 238"/><line class="cls-3" x1="350" y1="218" x2="350" y2="230.94"/><polygon class="cls-2" points="350 238 345.94 228.06 350 230.42 354.06 228.06 350 238"/><line class="cls-3" x1="310" y1="218" x2="310" y2="230.94"/><polygon class="cls-2" points="310 238 305.94 228.06 310 230.42 314.06 228.06 310 238"/><circle class="cls-3" cx="310" cy="203" r="5"/><line class="cls-3" x1="390" y1="338" x2="390" y2="350.94"/><polygon class="cls-2" points="390 358 385.94 348.06 390 350.42 394.06 348.06 390 358"/><line class="cls-3" x1="350" y1="338" x2="350" y2="350.94"/><polygon class="cls-2" points="350 358 345.94 348.06 350 350.42 354.06 348.06 350 358"/><circle class="cls-3" cx="350" cy="433" r="5"/><line class="cls-3" x1="310" y1="338" x2="310" y2="350.94"/><polygon class="cls-2" points="310 358 305.94 348.06 310 350.42 314.06 348.06 310 358"/><circle class="cls-3" cx="310" cy="433" r="5"/><line class="cls-3" x1="310" y1="338" x2="310" y2="350.94"/><polygon class="cls-2" points="310 358 305.94 348.06 310 350.42 314.06 348.06 310 358"/><line class="cls-3" x1="390" y1="398" x2="390" y2="410.94"/><polygon class="cls-2" points="390 418 385.94 408.06 390 410.42 394.06 408.06 390 418"/><line class="cls-3" x1="350" y1="398" x2="350" y2="410.94"/><polygon class="cls-2" points="350 418 345.94 408.06 350 410.42 354.06 408.06 350 418"/><line class="cls-3" x1="310" y1="398" x2="310" y2="410.94"/><polygon class="cls-2" points="310 418 305.94 408.06 310 410.42 314.06 408.06 310 418"/><line class="cls-3" x1="310" y1="398" x2="310" y2="410.94"/><polygon class="cls-2" points="310 418 305.94 408.06 310 410.42 314.06 408.06 310 418"/><line class="cls-3" x1="270" y1="398" x2="270" y2="410.94"/><polygon class="cls-2" points="270 418 265.94 408.06 270 410.42 274.06 408.06 270 418"/><circle class="cls-3" cx="310" cy="433" r="5"/><circle class="cls-3" cx="270" cy="433" r="5"/><path class="cls-2" d="M268.19,271.21v7.06h.72a.92.92,0,0,1,.62.16.58.58,0,0,1,.19.44.56.56,0,0,1-.19.43.87.87,0,0,1-.62.17H267V270h1.92a.94.94,0,0,1,.62.17.57.57,0,0,1,.18.44.57.57,0,0,1-.18.43.94.94,0,0,1-.62.16Z" transform="translate(-12 -12)"/><path class="cls-2" d="M273,277.29a.87.87,0,0,1-.25.24.45.45,0,0,1-.24.05.57.57,0,0,1-.44-.18.91.91,0,0,1-.17-.61V276a.92.92,0,0,1,.17-.62.57.57,0,0,1,.44-.18.55.55,0,0,1,.36.11.73.73,0,0,1,.22.37,1.08,1.08,0,0,0,.15.35,1.9,1.9,0,0,0,.61.37,2.27,2.27,0,0,0,.95.19,2.21,2.21,0,0,0,1.32-.37.69.69,0,0,0,.32-.57.68.68,0,0,0-.15-.42,1.13,1.13,0,0,0-.52-.32,7.88,7.88,0,0,0-1.05-.24,5.72,5.72,0,0,1-1.49-.44,2,2,0,0,1-.79-.73,1.84,1.84,0,0,1-.3-1,2,2,0,0,1,.72-1.51,2.72,2.72,0,0,1,1.88-.65,3.37,3.37,0,0,1,.86.11,2.16,2.16,0,0,1,.71.31.72.72,0,0,1,.47-.23.55.55,0,0,1,.43.18.88.88,0,0,1,.17.62v.9a.88.88,0,0,1-.17.62.55.55,0,0,1-.43.18.57.57,0,0,1-.38-.13.71.71,0,0,1-.2-.4,1,1,0,0,0-.16-.43,1.21,1.21,0,0,0-.51-.37,1.8,1.8,0,0,0-.79-.16,1.53,1.53,0,0,0-1,.31.81.81,0,0,0-.38.63.75.75,0,0,0,.15.43,1.15,1.15,0,0,0,.46.32,7.57,7.57,0,0,0,1.12.26,8.34,8.34,0,0,1,1.42.4,2,2,0,0,1,.82.68,1.86,1.86,0,0,1,.33,1.1,1.78,1.78,0,0,1-.63,1.43,3.15,3.15,0,0,1-2.12.7,4,4,0,0,1-1-.12A4.18,4.18,0,0,1,273,277.29Z" transform="translate(-12 -12)"/><path class="cls-2" d="M280.77,274.63v1.76h3.06v-.65a.91.91,0,0,1,.17-.61.53.53,0,0,1,.43-.19.56.56,0,0,1,.44.19.91.91,0,0,1,.16.61v1.86h-5.65a.92.92,0,0,1-.62-.17.57.57,0,0,1-.18-.44.57.57,0,0,1,.18-.43.94.94,0,0,1,.62-.17h.19V271.7h-.19a.92.92,0,0,1-.62-.17.57.57,0,0,1-.18-.44.55.55,0,0,1,.18-.43.87.87,0,0,1,.62-.17h5.39v1.83a.89.89,0,0,1-.17.61.51.51,0,0,1-.43.19.59.59,0,0,1-.44-.18.92.92,0,0,1-.16-.62v-.62h-2.8v1.73h1.05a1.27,1.27,0,0,1,.09-.6.56.56,0,0,1,.51-.29.59.59,0,0,1,.44.18.94.94,0,0,1,.16.62v1.38a1,1,0,0,1-.09.53.6.6,0,0,1-1,0,1.29,1.29,0,0,1-.09-.61Z" transform="translate(-12 -12)"/><path class="cls-2" d="M288.51,275.16v1.23h1.21a.94.94,0,0,1,.62.17.57.57,0,0,1,.18.44.57.57,0,0,1-.18.43.94.94,0,0,1-.62.17h-2.6a.92.92,0,0,1-.62-.17.57.57,0,0,1-.18-.44.57.57,0,0,1,.18-.43.94.94,0,0,1,.62-.17h.19V271.7h-.19a.92.92,0,0,1-.62-.17.57.57,0,0,1-.18-.44.55.55,0,0,1,.18-.43.87.87,0,0,1,.62-.17h2.76a2.71,2.71,0,0,1,1.93.67,2.11,2.11,0,0,1,.72,1.62,2.2,2.2,0,0,1-.24,1,2.36,2.36,0,0,1-.61.69,3.29,3.29,0,0,1-.87.52,3.37,3.37,0,0,1-1.17.17Zm0-1.2h1.11a2,2,0,0,0,1.25-.36,1.06,1.06,0,0,0,.46-.85A1,1,0,0,0,291,272a1.58,1.58,0,0,0-1.06-.31h-1.38Z" transform="translate(-12 -12)"/><path class="cls-2" d="M295.81,278.27v-7.06h-.72a.92.92,0,0,1-.62-.16.57.57,0,0,1-.19-.43.58.58,0,0,1,.19-.44.92.92,0,0,1,.62-.17H297v9.46h-1.92a.88.88,0,0,1-.62-.17.6.6,0,0,1,0-.86.94.94,0,0,1,.62-.17Z" transform="translate(-12 -12)"/><path class="cls-2" d="M18.19,271.21v7.06h.72a.92.92,0,0,1,.62.16.58.58,0,0,1,.19.44.56.56,0,0,1-.19.43.87.87,0,0,1-.62.17H17V270h1.92a.94.94,0,0,1,.62.17.57.57,0,0,1,.18.44.57.57,0,0,1-.18.43.94.94,0,0,1-.62.16Z" transform="translate(-12 -12)"/><path class="cls-2" d="M26.68,270.8a.89.89,0,0,1,.25-.23.54.54,0,0,1,.28-.08.53.53,0,0,1,.43.19.89.89,0,0,1,.17.61v1a.92.92,0,0,1-.17.62.55.55,0,0,1-.43.18.56.56,0,0,1-.39-.13.94.94,0,0,1-.21-.51.79.79,0,0,0-.17-.38,1.75,1.75,0,0,0-.67-.42,2.61,2.61,0,0,0-.86-.16,2.07,2.07,0,0,0-1,.24,2.13,2.13,0,0,0-.8.76,2.23,2.23,0,0,0-.35,1.25v.78A1.89,1.89,0,0,0,23.4,276a2.48,2.48,0,0,0,1.75.58,3.08,3.08,0,0,0,1.13-.18,1.68,1.68,0,0,0,.58-.42,1.54,1.54,0,0,1,.29-.24.48.48,0,0,1,.24-.06.55.55,0,0,1,.42.19.59.59,0,0,1,.19.42.86.86,0,0,1-.25.53,2.59,2.59,0,0,1-.92.65,4.28,4.28,0,0,1-1.67.31,4.18,4.18,0,0,1-1.92-.44,3,3,0,0,1-1.18-1.11,3,3,0,0,1-.49-1.65v-.82A3.67,3.67,0,0,1,22,272a3,3,0,0,1,1.21-1.25,3.31,3.31,0,0,1,1.64-.44,3.87,3.87,0,0,1,1,.12A2.87,2.87,0,0,1,26.68,270.8Z" transform="translate(-12 -12)"/><path class="cls-2" d="M31.5,271.7v4.69h2.59v-1.13a.87.87,0,0,1,.17-.62.6.6,0,0,1,.86,0,.92.92,0,0,1,.17.62v2.34H29.6a.94.94,0,0,1-.62-.17.57.57,0,0,1-.18-.44.57.57,0,0,1,.18-.43.94.94,0,0,1,.62-.17h.7V271.7h-.7a.94.94,0,0,1-.62-.17.57.57,0,0,1-.18-.44.55.55,0,0,1,.18-.43.88.88,0,0,1,.62-.17h2.6a.92.92,0,0,1,.62.17.55.55,0,0,1,.18.43.57.57,0,0,1-.18.44.92.92,0,0,1-.62.17Z" transform="translate(-12 -12)"/><path class="cls-2" d="M37.45,277.29a.87.87,0,0,1-.26.24.43.43,0,0,1-.24.05.57.57,0,0,1-.44-.18.91.91,0,0,1-.17-.61V276a.92.92,0,0,1,.17-.62.57.57,0,0,1,.44-.18.55.55,0,0,1,.36.11.73.73,0,0,1,.22.37.88.88,0,0,0,.16.35,1.73,1.73,0,0,0,.6.37,2.3,2.3,0,0,0,1,.19,2.21,2.21,0,0,0,1.32-.37.65.65,0,0,0,.17-1,1.13,1.13,0,0,0-.52-.32,7.13,7.13,0,0,0-1.05-.24,5.84,5.84,0,0,1-1.49-.44,2,2,0,0,1-.79-.73,1.84,1.84,0,0,1-.3-1,2,2,0,0,1,.73-1.51,2.69,2.69,0,0,1,1.87-.65,3.32,3.32,0,0,1,.86.11,2.31,2.31,0,0,1,.72.31.68.68,0,0,1,.47-.23.58.58,0,0,1,.43.18.94.94,0,0,1,.16.62v.9a.94.94,0,0,1-.16.62.58.58,0,0,1-.43.18.59.59,0,0,1-.39-.13.65.65,0,0,1-.19-.4,1.19,1.19,0,0,0-.17-.43,1.21,1.21,0,0,0-.51-.37,1.75,1.75,0,0,0-.78-.16,1.55,1.55,0,0,0-1,.31.84.84,0,0,0-.38.63.7.7,0,0,0,.16.43,1,1,0,0,0,.45.32,7.94,7.94,0,0,0,1.12.26,8.07,8.07,0,0,1,1.42.4,2,2,0,0,1,.82.68,1.86,1.86,0,0,1,.33,1.1,1.78,1.78,0,0,1-.63,1.43,3.15,3.15,0,0,1-2.12.7,4,4,0,0,1-1-.12A3.92,3.92,0,0,1,37.45,277.29Z" transform="translate(-12 -12)"/><path class="cls-2" d="M45.81,278.27v-7.06h-.72a.92.92,0,0,1-.62-.16.57.57,0,0,1-.19-.43.58.58,0,0,1,.19-.44.92.92,0,0,1,.62-.17H47v9.46H45.09a.88.88,0,0,1-.62-.17.6.6,0,0,1,0-.86.94.94,0,0,1,.62-.17Z" transform="translate(-12 -12)"/><path class="cls-2" d="M388.19,441.21v7.06h.72a.92.92,0,0,1,.62.16.58.58,0,0,1,.19.44.56.56,0,0,1-.19.43.87.87,0,0,1-.62.17H387V440h1.92a.94.94,0,0,1,.62.17.57.57,0,0,1,.18.44.57.57,0,0,1-.18.43.94.94,0,0,1-.62.16Z" transform="translate(-12 -12)"/><path class="cls-2" d="M393.57,444.63v1.76h3.06v-.65a.91.91,0,0,1,.17-.61.58.58,0,0,1,.86,0,.86.86,0,0,1,.17.61v1.86h-5.65a.92.92,0,0,1-.62-.17.58.58,0,0,1-.19-.44.57.57,0,0,1,.19-.43.94.94,0,0,1,.62-.17h.18V441.7h-.18a.92.92,0,0,1-.62-.17.58.58,0,0,1-.19-.44.56.56,0,0,1,.19-.43.87.87,0,0,1,.62-.17h5.39v1.83a.89.89,0,0,1-.17.61.53.53,0,0,1-.43.19.57.57,0,0,1-.44-.18.92.92,0,0,1-.16-.62v-.62h-2.8v1.73h1.05a1.27,1.27,0,0,1,.09-.6.6.6,0,0,1,.94-.11.88.88,0,0,1,.17.62v1.38a1,1,0,0,1-.09.53.59.59,0,0,1-.51.28.57.57,0,0,1-.51-.29,1.29,1.29,0,0,1-.09-.61Z" transform="translate(-12 -12)"/><path class="cls-2" d="M400.5,442.76v3.63h.43a.92.92,0,0,1,.62.17.57.57,0,0,1,.18.44.57.57,0,0,1-.18.43.92.92,0,0,1-.62.17h-1.58a.91.91,0,0,1-.61-.17.55.55,0,0,1-.19-.44.58.58,0,0,1,.18-.43.83.83,0,0,1,.57-.17V441.7h-.19a.92.92,0,0,1-.62-.17.57.57,0,0,1-.18-.44.55.55,0,0,1,.18-.43.87.87,0,0,1,.62-.17h1.39l3.07,4.82V441.7h-.44a.89.89,0,0,1-.61-.17.55.55,0,0,1-.19-.44.53.53,0,0,1,.19-.43.84.84,0,0,1,.61-.17h1.58a.92.92,0,0,1,.62.17.55.55,0,0,1,.18.43.59.59,0,0,1-.18.44.81.81,0,0,1-.56.17v5.9h-1.19Z" transform="translate(-12 -12)"/><path class="cls-2" d="M406.51,446.39V441.7a.87.87,0,0,1-.56-.18.55.55,0,0,1-.18-.43.53.53,0,0,1,.19-.43.84.84,0,0,1,.61-.17h2.52a3.21,3.21,0,0,1,1.14.22,2.6,2.6,0,0,1,.9.55,4.37,4.37,0,0,1,.54.69,4.68,4.68,0,0,1,.42.88,3.58,3.58,0,0,1,.14,1.06v.57a3.35,3.35,0,0,1-.26,1.35,2.73,2.73,0,0,1-.68,1,3.45,3.45,0,0,1-.79.55,3.6,3.6,0,0,1-1.51.28h-2.42a.89.89,0,0,1-.61-.17.55.55,0,0,1-.19-.44.54.54,0,0,1,.19-.43A.79.79,0,0,1,406.51,446.39Zm1.21,0H409a2.21,2.21,0,0,0,1.08-.2,1.84,1.84,0,0,0,.72-.69,2.09,2.09,0,0,0,.24-1.07v-.57a2.26,2.26,0,0,0-.22-1,2.21,2.21,0,0,0-.77-.92,2.11,2.11,0,0,0-1.06-.24h-1.26Z" transform="translate(-12 -12)"/><path class="cls-2" d="M415.81,448.27v-7.06h-.72a.92.92,0,0,1-.62-.16.57.57,0,0,1-.19-.43.58.58,0,0,1,.19-.44.92.92,0,0,1,.62-.17H417v9.46h-1.92a.88.88,0,0,1-.62-.17.6.6,0,0,1,0-.86.94.94,0,0,1,.62-.17Z" transform="translate(-12 -12)"/><g class="cls-6"><path class="cls-7" d="M292,440a1.1,1.1,0,0,0,.82-.51" transform="translate(-12 -12)"/><path class="cls-8" d="M293.7,437.72c7.55-21.13,8.72-182.55,15.86-212.83" transform="translate(-12 -12)"/><path class="cls-7" d="M309.8,223.92c.09-.34.18-.66.28-.95" transform="translate(-12 -12)"/><polygon class="cls-2" points="300 208 299.21 213.32 298.06 211.27 295.71 211.25 300 208"/></g><g class="cls-6"><path class="cls-7" d="M332,440a1.1,1.1,0,0,0,.82-.51" transform="translate(-12 -12)"/><path class="cls-8" d="M333.7,437.72c7.55-21.13,8.72-182.55,15.86-212.83" transform="translate(-12 -12)"/><path class="cls-7" d="M349.8,223.92c.09-.34.18-.66.28-.95" transform="translate(-12 -12)"/><polygon class="cls-2" points="340 208 339.21 213.32 338.06 211.27 335.71 211.25 340 208"/></g><g class="cls-6"><path class="cls-7" d="M372,440a1.1,1.1,0,0,0,.82-.51" transform="translate(-12 -12)"/><path class="cls-8" d="M373.7,437.72c7.55-21.13,8.72-182.55,15.86-212.83" transform="translate(-12 -12)"/><path class="cls-7" d="M389.8,223.92c.09-.34.18-.66.28-.95" transform="translate(-12 -12)"/><polygon class="cls-2" points="380 208 379.21 213.32 378.06 211.27 375.71 211.25 380 208"/></g><path class="cls-2" d="M172.28,60c-.35-2.36-.69-4.71-1-7.07h-.1v2.84l-.42,0a3.26,3.26,0,0,1-.41-.95c-.17-1.79-.27-3.59-.45-5.39,0-.2-.4-.38-1-.52l-.66,3.19-1.34-3-.35,2.71h-.8L165,49.48h-.14c-.57,2.23-1.14,4.47-1.73,6.8V52.63h-.27l-.6,3.42-.49,0-2-8.27h-.27v.86h-.18l-.77-1.79h-1.18l-.86,4.35-.34,0-1-2.4-1.8,6.41h-.24c-.2-1.63-.39-3.27-.6-5.06l-.49,1.27-.42,0-1-4.89-.61,0L148.44,49v-2H148l-.56,3.06-.67-2.2h-.19L146,51.21h-.3V49.45h-.42l-.63,2.15-.59-.5v3.29h-.57V50h-.5l-.43,1.45-.29,0-1.07-4.48H141l-.6,1.69-2-1.17V49H138V47.21h-.41a12.42,12.42,0,0,1,0,1.83,8,8,0,0,1-.52,1.49l-.69,0V49.15h-.47L135,54.59c-.4-.23-.86-.38-.94-.56a19.76,19.76,0,0,1-.82-2.34,15.88,15.88,0,0,0-1.18-3.41v2.06h-.45V48.13l-.56,0-.81,1.18-.41,0-.86-2-.21.92-.53-.35-.54.92-.61-.42-.43,0L125.77,51l-.2-.93h-.17l-.26.64-.43-.1c-.22.12-.6.25-.63.38-.25,1-.42,2.08-.76,3.12V51.61h-.41v1.3h-.47L121.82,47l-.47,0-.24,1.58h-.49l-1.29-2.94h-.22L117.89,48l-.51,0-.16-.7c-1.6.57-3.06,1.19-2.5,2.19l-.83-.36V52.3h-.59V50.07h-.37v2.2h-.56V46.6h-.6l-.64,1.35-.59-.53h-.48l-.6,1.65-.23-1-.67.28-.11-.84h-.2l-1.17,1.62-.65-.85h-.37V50l-.41,0-.65-.52-1.42,4.16-.85-6.79h-.38l-.54.44-.13-.86h-.26l-.16,1.13-1-.91-.25,1-.87-1.32-.89,1.31L98,46.57h-.25l-1,4.72-.54-.49-.47,0L95.21,57h-.15l-.18-.92h-.17l-.36.62-.82-9.8-.46,0-1.12,1-1-1-2,3.83h-.34v-1.3h-.39v2.21H87.8V49.62h-.34v1.9h-.4v-.84h-.27l-.69,1.51-.29,0V50.3l-.7.59-.63-2.57-.36.08-1.9-2H82l-.67,3.14-.46,0-.39-.67-.38.53H79.6V48.06l-.44,0-.64-1.65-.24,0-1.34,2.25h-.23l-.17-1-.69.62V46.9h-.38v2.81h-.22l-1.58-3.29-1.15,2-.31,0-.61-1.18c-1.13,1.28-.2,2.51-.88,3.71l-.13-1-.34,0-.6.8H69.3V48.08h-.66l-1.17,3.36L63.79,46l-.6,0L63,47.6l-1.37-1.45-.24.62L61,46.62c-.23.08-.62.14-.67.23a26,26,0,0,1-1.61,2.58V48.14h-.3l-.59,4.29h-.26l-.16-.88h-.17l-.42,1-.46,0V50.39l-.3,0-.4.74-.62-3.92h-.27l-.17,1.32-.52.05c-.19-.21-.55-.43-.56-.64a10.6,10.6,0,0,0-.09-2.87c-.51-1.47.44-2.93.09-4.39-.07-.28.23-.57.58-.86L54.73,41H55a1.36,1.36,0,0,1,.07-.25c.44-1.15.94-2.31,1.31-3.47A16.86,16.86,0,0,0,56.83,35l2.66,6h.36V39.67h.38v1.89h.41V39.81h.41V41.5l.41,0,.69-.61.19.82.53-.11.84.69.42.05.76-3H65l.15,1.17h.28V38.75h.37l.17.72,1-2.62h.53l1.07,3.43H69V39.08h.36l.12,1h.28V37.87l.28,0L70.8,39l.36-.41.42,0L72,40.3l.35-.41,1.37,1.75.49-.07,2.39-3.13v1.81h.34l.22-.84.48,0L78.42,42h.51l.91-4.63h.34v2.66h.38v-.9l2.8,2.9.41,0,1.53-6.61.28,1.44,1-.55.37,0v2.5h.4v-2h.3l.62,2.65h.17L89,37.26h.21L91,41h.21l.25-.6,1.29,1.75c1.12-2.36.43-4.58,2-6.67h.79v2.92h.49l.2-1.18h.25l.61,2.89.48-.62c.55.81.14,1.72,2.5,2.15l1.57-.85.16.81.52,0,1.62-5.9.61,3h.19l.64-2.23h.21l.22,1h.3V35h.38a3.28,3.28,0,0,0,0,.7,15.16,15.16,0,0,0,1.25,4.06l.51-2.53,1,4.07h.27l.19-.75.38,0,1.69,2.06,1.24-5.91.2,0,1.1,3.79h.33l.47-1.4.48,0v1.09h.25l.42-.45.77,1.45.26-.84h.25v1.16H118l.18-1.19h.24l.62,2,.49,0,1.72-2.76v1h.47l.51-2.5.18,0v.86h.42V36.65l.36,0s.07.05.07.07,0,.14,0,.21l.51-.14V35.28H124l.3,2.58.93-.41.11.84h.32V37h.26l.6,2.21,1.4-.18.56,1.33c.87-.16.87-.16,1.74-1.83l.4,1.38L131,40c.31-.2.79-.38.9-.59s0-.7.12-1a4.62,4.62,0,0,1,1-2.2l.5.56,1.52-5.05,1.08,8.58h.24v-3h.35V39h.42V37.85c1.09.89-.63,1.95,1.56,2.79l.18-.71,1.58,1.43c.42-.74,1-1.35,1.06-2,.14-1.68.05-3.37.05-5v-.72H142v2.68h.13l1-2.69.65,0L145,38.17l.59,0V35.29h.12l1.79,5.3,1.51-.46.59,2.12.62,0L151.49,37l.66.82h.51l.64-4.16c.62,2.05,1.35,4.44,2.08,6.84l.67-2.59,1.69,4.12,1.15-2.37.82,1,.73-.05V34.12h.64V36h.38V32.58c1.47,1,.48,2.1,1.22,3.13V34.54H163l.19,1h.19l.29-1.42h.46l.59,4.53H165l.15-1.32h.29v1.46h.36V37.68l.32,0,.76,1.14.4-.5.48,0,1.2,2h.43V37.85h.43v1.3h.44c0-.78,0-1.55,0-2.32a35.24,35.24,0,0,1,.43-4.34,12.13,12.13,0,0,1,1.13-2.5v2.24h.42V30.77h.33v5.08H173l.82-1.82.43,0,.58,4.35H175l.18-1.18h.23l.16,1.08.52-.73.46.61.21-.83H177l.19.61h.36V36.21h.56c.39,1.65.78,3.3,1.18,5l.61-1.91h.37l1,1,1-.17.37.18.12-1h.57l.27,2.1,1.09-3.06H185l1.23,3,.35,0,.16-1.07.56.57.27-.57h.17l.64,2.48c2-2.94,1.78-5.95,2.4-9.16.52.33,1,.49,1,.67a11.56,11.56,0,0,0,1,3.31l.35-1.65h.23L194,38h.44V35.21l.54,0,1.08,1.8.77-.06.25-1.18h.16l.33,1.81H198l.67-1.52H199v1.16h.39l1-3.87h.14l.61,4.8h.32V34.24l1.38,3.37h.9l.73-2.63.39.38.49-.57.65,2.55h.23V34.84h.59v4.38h.47l.37-.78.38.89h.47l.21-1,.21,0,.7,1,.37-.48,1,.36V36.64h.27c.2.88.41,1.77.62,2.65h.22l.15-1,.42,0c.62,1,1.23,2,1.84,2.94l.35,0,.67-1.69h.18l.62,2.43,1.17-.78.83.93.73-1.38,1.62.8.75-.92,1.83.74.18-.46h.19l.22.65H224l.24-.62,1.05.78,1.13-1.56v1.66h.49l.56-1.92h.13l.19,1.32h.28v-3h.34l.16,1.05H229l.37-2.42.42,0,.41,1.81h.43V33.48h.56V35.7l.54,0,.47-2.35h.21v4.47h.38V34.08l.46,0,1.56,3.48V34.23h.56v3.54h.49l.92-1.17V38.7h.47l.51-1.94c2.38.7,1.89,1.8,2.08,2.88l.3-.44,1.73,1,1.33-1a5.29,5.29,0,0,0,.93,1.8,12.79,12.79,0,0,0,2.18,1.34l.24-.36c.94,1,2.32,1.84,5.43,2v.15c-3,.47-5.58,1.11-6.17,2.48l-1-.5-2.37,2.17-.87-.86-.43,0v1.93h-.43v-1l-.4,0v1.14H240V48.1l-1.22,3.15h-.17L238.17,50l-.57,0v3.36h-.39V49.05h-.13l-.77,2.23-.76,0V49.94h-.32l-.53,3.26h-.24V50.53h-.34l-1.59,3.28h-.11v-2.2h-.21l-.43,1.5-.43,0L231.19,52H231l-.19.77h-.31c-.23-1.26-.45-2.53-.68-3.79h-.57v3.13H229l-1.11-5.35h-.19v1.32h-.3l-.2-.91H227l-.18.77h-.2l-.78-1.39-.69,2h-.21V47.19h-.28l-.38.55L222,46.21l-.75,2.51h-.49l-.42-1.92-.84,1-.69-1.09-.6.67-.21-1-.43.74h-.18l-.15-.8-.41,0-.47,1.31-.49-.27-.43.54-.23-.92-.54.55-.29-.65h-.25L212,51.09h-.28V49.75h-.29l-.18.78-.39,0-.51-1.39h-.26v2.52c-.35-.63-.21-1.26-.39-1.88a8.11,8.11,0,0,0-1-1.72l-1.13,3.78h-.28V49h-.49l-.43,2.39h-.2l-.12-.63h-.22l-.29.61-.39-.45h-.3c-.16,1.06-.33,2.11-.49,3.17h-.28V49.34h-.22l-.58,3.71H203V50.53h-.21l-.67,1.61-.73-.93-.42,0-.54,2.25-.66-2.37h-.37v2.39H199V52h-.49l-.5,1.68-1.25-3.84-.54,2.92h-.28l-.42-.68-.71,1.35h-.47l-.27-3.19-.67,0v3.65h-.35l-.6-3.14h-.53L191,58.93a21.18,21.18,0,0,1-.76-3.87c-.18-1.8-.25-3.6-.42-5.4a10.49,10.49,0,0,0-.44-2.38c-.11-.35-.64-.68-1-1l-.48,0-.15,1.17h-.22l-.23-.91H187v2.23h-.2l-.67-1.33h-.46l-.32,2.15-.19,0-.24-.38-.71.58V48.48l-.3,0-.88.76-1.88-2-.62,3.66-1.1-3.36h-.14l-1.09,3.9h-.39l-.46-3h-.26c-.18,1-.37,1.91-.55,2.86h-.13l-.21-.75h-.31v1.71a5.26,5.26,0,0,0-.47-.36h-.34V53.2h-.32l-.12-1h-.4v1.6h-.35V50.66h-.14c-.35,3.11-.69,6.22-1,9.33Z" transform="translate(-12 -12)"/><path class="cls-2" d="M131.72,60c.35-2.36.69-4.71,1-7.07h.1v2.84l.42,0a3.26,3.26,0,0,0,.41-.95c.17-1.79.27-3.59.45-5.39,0-.2.4-.38,1-.52l.66,3.19,1.34-3,.35,2.71h.8l.69-2.36h.14c.57,2.23,1.14,4.47,1.73,6.8V52.63h.27l.6,3.42.49,0,2-8.27h.27v.86h.18l.77-1.79h1.18l.86,4.35.34,0,1-2.4,1.8,6.41h.24c.2-1.63.39-3.27.6-5.06l.49,1.27.42,0,1-4.89.61,0L155.56,49v-2h.49l.56,3.06.67-2.2h.19l.58,3.27h.3V49.45h.42l.63,2.15.59-.5v3.29h.57V50h.5l.43,1.45.29,0,1.07-4.48H163l.6,1.69,2-1.17V49H166V47.21h.41a12.42,12.42,0,0,0,0,1.83,8,8,0,0,0,.52,1.49l.69,0V49.15h.47l.91,5.45c.4-.23.86-.38.94-.56a19.76,19.76,0,0,0,.82-2.34A15.88,15.88,0,0,1,172,48.28v2.06h.45V48.13l.56,0,.81,1.18.41,0,.86-2,.21.92.53-.35.54.92.61-.42.43,0,.87,2.65.2-.93h.17l.26.64.43-.1c.22.12.6.25.63.38.25,1,.42,2.08.76,3.12V51.61h.41v1.3h.47l.62-5.89.47,0,.24,1.58h.49l1.29-2.94h.22l1.22,2.3.51,0,.16-.7c1.6.57,3.06,1.19,2.5,2.19l.83-.36V52.3h.59V50.07h.37v2.2h.56V46.6h.6l.64,1.35.59-.53h.48l.6,1.65.23-1,.67.28.11-.84h.2l1.17,1.62.65-.85h.37V50l.41,0,.65-.52,1.42,4.16.85-6.79h.38l.54.44.13-.86h.26l.16,1.13,1-.91.25,1,.87-1.32.89,1.31.22-1.06h.25l1,4.72.54-.49.47,0,.6,6.14h.15l.18-.92h.17l.36.62.82-9.8.46,0,1.12,1,.95-1,2.05,3.83h.34v-1.3h.39v2.21h.42V49.62h.34v1.9h.4v-.84h.27l.69,1.51.29,0V50.3l.7.59.63-2.57.36.08,1.9-2H222l.67,3.14.46,0,.39-.67.38.53h.46V48.06l.44,0,.64-1.65.24,0,1.34,2.25h.23l.17-1,.69.62V46.9h.38v2.81h.22l1.58-3.29,1.15,2,.31,0,.61-1.18c1.13,1.28.2,2.51.88,3.71l.13-1,.34,0,.6.8h.35V48.08h.66l1.17,3.36L240.21,46l.6,0,.21,1.6,1.37-1.45.24.62.36-.15c.23.08.62.14.67.23a26,26,0,0,0,1.61,2.58V48.14h.3l.59,4.29h.26l.16-.88h.17l.42,1,.46,0V50.39l.3,0,.4.74.62-3.92h.27l.17,1.32.52.05c.19-.21.55-.43.56-.64a10.6,10.6,0,0,1,.09-2.87c.51-1.47-.44-2.93-.09-4.39.07-.28-.23-.57-.58-.86L249.27,41H249a1.36,1.36,0,0,0-.07-.25c-.44-1.15-.94-2.31-1.31-3.47a16.86,16.86,0,0,1-.42-2.28l-2.66,6h-.36V39.67h-.38v1.89h-.41V39.81H243V41.5l-.41,0-.69-.61-.19.82-.53-.11-.84.69-.42.05-.76-3H239l-.15,1.17h-.28V38.75h-.37l-.17.72-1-2.62h-.53l-1.07,3.43H235V39.08h-.36l-.12,1h-.28V37.87l-.28,0L233.2,39l-.36-.41-.42,0L232,40.3l-.35-.41-1.37,1.75-.49-.07-2.39-3.13v1.81h-.34l-.22-.84-.48,0L225.58,42h-.51l-.91-4.63h-.34v2.66h-.38v-.9l-2.8,2.9-.41,0-1.53-6.61-.28,1.44-1-.55-.37,0v2.5h-.4v-2h-.3l-.62,2.65h-.17l-.53-2.21h-.21L213,41h-.21l-.25-.6-1.29,1.75c-1.12-2.36-.43-4.58-2-6.67h-.79v2.92H208l-.2-1.18h-.25l-.61,2.89-.48-.62c-.55.81-.14,1.72-2.5,2.15l-1.57-.85-.16.81-.52,0L200,35.74l-.61,3h-.19l-.64-2.23h-.21l-.22,1h-.3V35h-.38a3.28,3.28,0,0,1,0,.7,15.16,15.16,0,0,1-1.25,4.06l-.51-2.53-1,4.07h-.27l-.19-.75-.38,0-1.69,2.06-1.24-5.91-.2,0-1.1,3.79h-.33l-.47-1.4-.48,0v1.09h-.25l-.42-.45-.77,1.45-.26-.84h-.25v1.16H186l-.18-1.19h-.24l-.62,2-.49,0-1.72-2.76v1h-.47l-.51-2.5-.18,0v.86h-.42V36.65l-.36,0s-.07.05-.07.07,0,.14,0,.21l-.51-.14V35.28H180l-.3,2.58-.93-.41-.11.84h-.32V37h-.26l-.6,2.21-1.4-.18-.56,1.33c-.87-.16-.87-.16-1.74-1.83l-.4,1.38L173,40c-.31-.2-.79-.38-.9-.59s0-.7-.12-1a4.62,4.62,0,0,0-1-2.2l-.5.56-1.52-5.05-1.08,8.58h-.24v-3h-.35V39h-.42V37.85c-1.09.89.63,1.95-1.56,2.79l-.18-.71-1.58,1.43c-.42-.74-1-1.35-1.06-2-.14-1.68-.05-3.37-.05-5v-.72H162v2.68h-.13l-1-2.69-.65,0L159,38.17l-.59,0V35.29h-.12l-1.79,5.3L155,40.14l-.59,2.12-.62,0L152.51,37l-.66.82h-.51l-.64-4.16c-.62,2.05-1.35,4.44-2.08,6.84L148,37.94l-1.69,4.12-1.15-2.37-.82,1-.73-.05V34.12h-.64V36h-.38V32.58c-1.47,1-.48,2.1-1.22,3.13V34.54H141l-.19,1h-.19l-.29-1.42h-.46l-.59,4.53H139l-.15-1.32h-.29v1.46h-.36V37.68l-.32,0-.76,1.14-.4-.5-.48,0-1.2,2h-.43V37.85h-.43v1.3h-.44c0-.78,0-1.55,0-2.32a35.24,35.24,0,0,0-.43-4.34,12.13,12.13,0,0,0-1.13-2.5v2.24h-.42V30.77h-.33v5.08H131L130.18,34l-.43,0-.58,4.35H129l-.18-1.18h-.23l-.16,1.08-.52-.73-.46.61-.21-.83H127l-.19.61h-.36V36.21h-.56c-.39,1.65-.78,3.3-1.18,5l-.61-1.91h-.37l-1,1-1-.17-.37.18-.12-1h-.57l-.27,2.1-1.09-3.06H119l-1.23,3-.35,0-.16-1.07-.56.57-.27-.57h-.17l-.64,2.48c-2-2.94-1.78-5.95-2.4-9.16-.52.33-1,.49-1,.67a11.56,11.56,0,0,1-1,3.31l-.35-1.65h-.23L110,38h-.44V35.21l-.54,0L107.91,37l-.77-.06-.25-1.18h-.16l-.33,1.81H106L105.34,36h-.29v1.16h-.39l-1-3.87h-.14l-.61,4.8h-.32V34.24l-1.38,3.37h-.9L99.62,35l-.39.38-.49-.57-.65,2.55h-.23V34.84h-.59v4.38H96.8l-.37-.78-.38.89h-.47l-.21-1-.21,0-.7,1-.37-.48-1,.36V36.64h-.27c-.2.88-.41,1.77-.62,2.65H92l-.15-1-.42,0c-.62,1-1.23,2-1.84,2.94l-.35,0-.67-1.69h-.18l-.62,2.43-1.17-.78-.83.93L85,40.69l-1.62.8-.75-.92-1.83.74-.18-.46h-.19l-.22.65H80l-.24-.62-1,.78-1.13-1.56v1.66H77.1l-.56-1.92h-.13l-.19,1.32h-.28v-3H75.6l-.16,1.05H75l-.37-2.42-.42,0-.41,1.81h-.43V33.48h-.56V35.7l-.54,0-.47-2.35h-.21v4.47h-.38V34.08l-.46,0-1.56,3.48V34.23h-.56v3.54h-.49l-.92-1.17V38.7h-.47l-.51-1.94c-2.38.7-1.89,1.8-2.08,2.88l-.3-.44-1.73,1-1.33-1a5.29,5.29,0,0,1-.93,1.8,12.79,12.79,0,0,1-2.18,1.34L57.43,42c-.94,1-2.32,1.84-5.43,2v.15c3,.47,5.58,1.11,6.17,2.48l.95-.5,2.37,2.17.87-.86.43,0v1.93h.43v-1l.4,0v1.14H64V48.1l1.22,3.15h.17L65.83,50l.57,0v3.36h.39V49.05h.13l.77,2.23.76,0V49.94h.32l.53,3.26h.24V50.53h.34l1.59,3.28h.11v-2.2h.21l.43,1.5.43,0L72.81,52H73l.19.77h.31c.23-1.26.45-2.53.68-3.79h.57v3.13H75l1.11-5.35h.19v1.32h.3l.2-.91H77l.18.77h.2l.78-1.39.69,2h.21V47.19h.28l.38.55L82,46.21l.75,2.51h.49l.42-1.92.84,1,.69-1.09.6.67.21-1,.43.74h.18l.15-.8.41,0,.47,1.31.49-.27.43.54.23-.92.54.55.29-.65h.25L92,51.09h.28V49.75h.29l.18.78.39,0,.51-1.39h.26v2.52c.35-.63.21-1.26.39-1.88a8.11,8.11,0,0,1,.95-1.72l1.13,3.78h.28V49h.49l.43,2.39h.2l.12-.63h.22l.29.61.39-.45h.3c.16,1.06.33,2.11.49,3.17h.28V49.34h.22l.58,3.71H101V50.53h.21l.67,1.61.73-.93.42,0,.54,2.25.66-2.37h.37v2.39H105V52h.49l.5,1.68,1.25-3.84.54,2.92h.28l.42-.68.71,1.35h.47l.27-3.19.67,0v3.65H111l.6-3.14h.53l.93,8.13a21.18,21.18,0,0,0,.76-3.87c.18-1.8.25-3.6.42-5.4a10.49,10.49,0,0,1,.44-2.38c.11-.35.64-.68,1-1l.48,0,.15,1.17h.22l.23-.91H117v2.23h.2l.67-1.33h.46l.32,2.15.19,0,.24-.38.71.58V48.48l.3,0,.88.76,1.88-2,.62,3.66,1.1-3.36h.14l1.09,3.9h.39l.46-3h.26c.18,1,.37,1.91.55,2.86h.13l.21-.75h.31v1.71a5.26,5.26,0,0,1,.47-.36H129V53.2h.32l.12-1h.4v1.6h.35V50.66h.14c.35,3.11.69,6.22,1,9.33Z" transform="translate(-12 -12)"/><path class="cls-2" d="M381,57.5c-.34-2-.69-3.93-1-5.89h-.1V54l-.41,0a2.43,2.43,0,0,1-.42-.79c-.17-1.5-.27-3-.44-4.49,0-.16-.41-.32-1-.44l-.66,2.66-1.33-2.49-.36,2.26h-.8l-.69-2h-.14l-1.73,5.67v-3h-.27L371,54.21h-.5l-2-6.89h-.27v.72h-.17l-.78-1.49h-1.18l-.86,3.62-.34,0-1-2-1.8,5.34h-.24l-.6-4.21-.48,1.06-.43,0-1-4.07-.6,0-1.6,2.09V46.73h-.49l-.56,2.55-.67-1.83h-.19l-.57,2.72h-.31V48.71h-.42l-.63,1.79-.59-.41v2.73h-.57V49.14h-.49l-.44,1.21-.29,0-1.07-3.73h-.18l-.6,1.41-2-1v1.29h-.39V46.84h-.4a7.83,7.83,0,0,1,0,1.53,6.13,6.13,0,0,1-.51,1.24l-.7,0V48.46h-.47L343.7,53c-.39-.19-.86-.32-.93-.46a13.22,13.22,0,0,1-.83-2,12.37,12.37,0,0,0-1.17-2.84v1.72h-.45V47.61l-.57,0-.81,1-.41,0-.86-1.7-.21.76-.53-.28-.54.76-.61-.35h-.43l-.87,2.2-.2-.77h-.17l-.26.53-.43-.08c-.22.1-.6.2-.63.32-.24.86-.42,1.73-.75,2.59V50.51h-.42v1.09h-.47l-.62-4.9h-.46L329.82,48h-.49L328,45.56h-.22l-1.22,1.92-.51,0-.16-.59c-1.59.48-3.06,1-2.5,1.83l-.83-.3v2.67H322V49.22h-.37v1.84h-.56V46.33h-.6l-.64,1.13-.58-.44h-.48l-.61,1.38-.23-.84-.67.23-.1-.71H317l-1.17,1.35-.65-.71h-.37v1.49h-.41l-.64-.44-1.43,3.47-.85-5.65-.38,0-.53.38-.14-.72h-.26l-.16.95-1-.76-.25.8-.87-1.1L307,47.19l-.22-.88h-.24l-1,3.94-.54-.41h-.47l-.6,5.13h-.15l-.18-.76h-.17l-.35.51-.82-8.16-.47,0-1.12.85-1-.86-2,3.19h-.35V48.62h-.39v1.84h-.42V48.85h-.34v1.58h-.4v-.71h-.27L294.81,51h-.28V49.42l-.71.49-.63-2.14-.36.06-1.89-1.65h-.27L290,48.81h-.45l-.4-.55-.38.44h-.46V47.55l-.44,0-.64-1.38H287l-1.34,1.88h-.23l-.17-.85-.68.52V46.58h-.38v2.34H284l-1.58-2.75-1.15,1.65-.3,0-.62-1c-1.12,1.06-.2,2.09-.88,3.08l-.13-.78-.34,0-.6.67H278V47.57h-.66l-1.17,2.8-3.68-4.54h-.6l-.2,1.34L270.32,46l-.24.51-.36-.12a3.39,3.39,0,0,0-.67.19,21.47,21.47,0,0,1-1.61,2.15V47.62h-.29l-.6,3.57h-.26l-.16-.73H266l-.42.81h-.46V49.49h-.3l-.4.61-.62-3.27h-.27l-.17,1.09-.51,0c-.2-.18-.56-.36-.57-.54-.06-.8.24-1.6-.09-2.38-.5-1.23.45-2.45.09-3.67-.07-.23.23-.47.58-.71l.62,1h.3a1.72,1.72,0,0,1,.07-.21c.44-1,.94-1.92,1.31-2.89a12.13,12.13,0,0,0,.42-1.91l2.66,5h.36V40.55H269v1.58h.41V40.67h.41v1.41l.4,0,.7-.5.18.68.53-.09.84.57.42,0,.76-2.52h.09l.15,1h.29V39.79h.36l.17.6,1-2.19h.53l1.07,2.86h.44v-1h.37l.12.84h.27V39.06l.28,0,.74,1,.36-.34.42,0,.39,1.45.36-.34,1.36,1.46.49-.06,2.39-2.6V41h.34l.23-.7.47,0,.81,2.21h.52l.9-3.85h.34V40.9h.38v-.75l2.8,2.41h.41l1.53-5.5.28,1.19,1-.46.36,0v2.08h.4v-1.7h.3l.62,2.21h.17l.53-1.84h.21l1.86,3.13h.21l.25-.51,1.29,1.46c1.12-2,.43-3.81,2-5.55h.78v2.43h.49l.2-1h.25l.61,2.41.48-.51c.55.67.15,1.43,2.5,1.79l1.58-.71.16.68h.51l1.62-4.92.61,2.49h.2l.63-1.86h.21l.22.87h.3V36.66h.39a2.91,2.91,0,0,0,0,.59,11.3,11.3,0,0,0,1.25,3.39l.51-2.11,1,3.38h.27l.19-.63.38,0,1.7,1.71L321.8,38l.21,0,1.1,3.16h.32L323.9,40l.48,0v.9l.25,0,.42-.38.77,1.21.26-.7h.25v1h.36l.18-1h.24l.62,1.64.5,0,1.72-2.3v.85h.46l.51-2.09h.18v.71h.43V38c.24,0,.32,0,.35,0s.07,0,.07.06,0,.11,0,.17l.51-.12V36.9h.22l.3,2.15.93-.34.11.69h.33V38.32h.26l.59,1.84,1.4-.15.56,1.11c.87-.14.87-.14,1.74-1.53l.4,1.16.43.09c.31-.17.8-.32.9-.5s.05-.58.12-.87a3.6,3.6,0,0,1,1-1.84l.51.47,1.51-4.21L344.86,41h.24V38.55h.35V40h.42V39c1.09.75-.63,1.63,1.56,2.33l.18-.6L349.19,42c.42-.61,1-1.12,1.06-1.63.14-1.4.05-2.8.05-4.21v-.59h.4v2.23h.12l1-2.24h.65l1.28,3.78.59,0V36.91h.12l1.8,4.41,1.5-.38.59,1.77H359l1.25-4.38.65.68h.52l.63-3.46,2.08,5.69.67-2.15,1.69,3.43,1.16-2,.81.84.73,0V35.94h.64v1.59h.38V34.65c1.47.83.48,1.75,1.23,2.61v-1h.33l.19.87h.2L372.4,36h.46l.59,3.78h.29l.15-1.1h.29v1.22h.36v-1h.33l.75.94.4-.41.48,0,1.2,1.69h.43V39h.43v1.09H379c0-.64,0-1.29,0-1.93a24.65,24.65,0,0,1,.43-3.62,9.33,9.33,0,0,1,1.13-2.08v1.87H381V33.14h.33v4.23h.4l.82-1.51H383l.58,3.63h.15l.18-1h.23l.17.91.52-.61.45.5.21-.69h.23l.18.51h.36V37.67h.56c.39,1.37.78,2.74,1.18,4.18l.61-1.59h.37l1,.8,1-.14.36.15.12-.83H392l.27,1.75,1.09-2.55h.33L394.92,42h.34l.16-.89.56.46.27-.47h.18l.64,2.06c1.94-2.44,1.78-5,2.39-7.62.52.27,1,.4,1,.55a8.25,8.25,0,0,0,1,2.76l.34-1.37h.23l.68,1.73h.45V36.84l.53,0,1.08,1.49.77,0,.26-1H406l.32,1.51h.4l.66-1.26h.29v1h.4l.95-3.22h.14l.62,4h.31V36l1.39,2.81h.89l.73-2.19.39.31.49-.47.66,2.13h.22V36.53h.59v3.65h.47l.37-.65.39.75h.46l.21-.87.21,0,.71.82.36-.41,1,.31V38h.27l.62,2.21h.22l.15-.85.43,0,1.83,2.45.35,0,.67-1.4h.19l.61,2,1.17-.66.83.78.74-1.15,1.61.66.75-.76,1.83.62.18-.39h.19l.22.54h.19l.25-.51,1,.65,1.13-1.3v1.38h.49l.56-1.6h.13l.19,1.1h.28V39.3h.34l.16.88h.46l.38-2,.42,0,.41,1.5h.42V35.4h.56v1.85h.54l.47-1.95h.21V39h.38V35.9H442l1.56,2.89V36h.57v3h.48l.92-1v1.74H446l.51-1.62c2.38.58,1.9,1.5,2.09,2.4l.29-.36,1.73.83,1.33-.8c.34.59.41,1.07.93,1.5A13.85,13.85,0,0,0,455,42.82l.24-.3c1,.85,2.32,1.54,5.43,1.66v.13c-3,.39-5.58.92-6.17,2.07l-1-.42-2.37,1.81-.87-.72-.42,0v1.61h-.43v-.84h-.41v1h-.4V47.58l-1.21,2.63h-.17l-.42-1.06-.58,0V52h-.39V48.37h-.13L445,50.24l-.77,0V49.12H444l-.53,2.71h-.25V49.61h-.34l-1.59,2.73h-.11V50.51h-.21l-.42,1.24h-.44l-.15-.9h-.24l-.19.64h-.31c-.23-1.06-.45-2.11-.67-3.17h-.58v2.61h-.22c-.37-1.49-.74-3-1.1-4.46h-.2v1.1h-.3l-.19-.76h-.22l-.19.64h-.2l-.78-1.16-.69,1.63h-.21V46.82h-.27l-.39.46L430.72,46,430,48.1h-.5l-.42-1.61-.84.8-.69-.9-.6.56-.21-.86-.43.62h-.18L426,46h-.41l-.46,1.09-.49-.23-.44.45-.23-.77-.54.47-.29-.55h-.25l-2.12,3.58h-.27V49h-.3l-.18.65-.39,0-.51-1.16h-.26v2.09c-.35-.52-.21-1-.39-1.56a6.67,6.67,0,0,0-.94-1.43l-1.14,3.15h-.28V48.35h-.49l-.43,2h-.2l-.12-.53h-.22l-.29.5-.39-.37h-.3c-.16.88-.33,1.76-.49,2.64h-.28v-4h-.22l-.57,3.09h-.39V49.61h-.21L410.8,51l-.74-.77h-.42l-.54,1.88-.66-2h-.37v2h-.36V50.85h-.49l-.49,1.4L405.47,49l-.54,2.44h-.28l-.42-.56L403.52,52h-.46l-.28-2.66h-.67v3.05h-.35l-.6-2.61h-.53l-.93,6.77a16.43,16.43,0,0,1-.76-3.23c-.18-1.5-.25-3-.42-4.5a7.43,7.43,0,0,0-.44-2c-.11-.29-.64-.56-1-.84l-.48,0-.15,1h-.22l-.23-.75h-.34v1.85h-.19l-.67-1.11h-.47L394,48.85h-.2l-.24-.32-.71.48V47.9l-.29,0-.89.64-1.88-1.68-.62,3.05-1.1-2.8-.14,0-1.09,3.24h-.39L386,47.83h-.26l-.55,2.39h-.13l-.2-.63h-.32V51c-.32-.2-.38-.25-.46-.29h-.35v1.12h-.32l-.12-.85h-.4v1.33h-.35V49.72h-.14c-.35,2.59-.69,5.19-1,7.78Z" transform="translate(-12 -12)"/></svg>